<svg width="211" height="19" viewBox="0 0 211 19" fill="none" xmlns="http://www.w3.org/2000/svg">
<g style="mix-blend-mode:hue">
<mask id="mask0" mask-type="alpha" maskUnits="userSpaceOnUse" x="2" y="1" width="208" height="18">
<path d="M15.9102 12.6133C15.7773 14.4492 15.0977 15.8945 13.8711 16.9492C12.6523 18.0039 11.043 18.5312 9.04297 18.5312C6.85547 18.5312 5.13281 17.7969 3.875 16.3281C2.625 14.8516 2 12.8281 2 10.2578V9.21484C2 7.57422 2.28906 6.12891 2.86719 4.87891C3.44531 3.62891 4.26953 2.67188 5.33984 2.00781C6.41797 1.33594 7.66797 1 9.08984 1C11.0586 1 12.6445 1.52734 13.8477 2.58203C15.0508 3.63672 15.7461 5.11719 15.9336 7.02344H12.418C12.332 5.92188 12.0234 5.125 11.4922 4.63281C10.9688 4.13281 10.168 3.88281 9.08984 3.88281C7.91797 3.88281 7.03906 4.30469 6.45312 5.14844C5.875 5.98438 5.57812 7.28516 5.5625 9.05078V10.3398C5.5625 12.1836 5.83984 13.5312 6.39453 14.3828C6.95703 15.2344 7.83984 15.6602 9.04297 15.6602C10.1289 15.6602 10.9375 15.4141 11.4688 14.9219C12.0078 14.4219 12.3164 13.6523 12.3945 12.6133H15.9102Z" fill="white"/>
<path d="M18.2188 18.2969V5.61719H23.5156C25.2422 5.61719 26.5664 5.92188 27.4883 6.53125C28.4102 7.14062 28.8711 8.01562 28.8711 9.15625C28.8711 9.74219 28.6758 10.2695 28.2852 10.7383C27.9023 11.1992 27.3398 11.5547 26.5977 11.8047C27.5039 11.9766 28.2148 12.3164 28.7305 12.8242C29.2539 13.3242 29.5156 13.9414 29.5156 14.6758C29.5156 15.8555 29.0703 16.7539 28.1797 17.3711C27.2969 17.9883 26.0117 18.2969 24.3242 18.2969H18.2188ZM21.6055 13.0352V15.5898H24.3359C25.5312 15.5898 26.1289 15.1719 26.1289 14.3359C26.1289 13.4844 25.5586 13.0508 24.418 13.0352H21.6055ZM21.6055 10.7617H23.7031C24.8906 10.7461 25.4844 10.3633 25.4844 9.61328C25.4844 9.15234 25.3203 8.82422 24.9922 8.62891C24.6719 8.43359 24.1797 8.33594 23.5156 8.33594H21.6055V10.7617Z" fill="white"/>
<path d="M42.1602 5.61719V18.2969H38.7852V13.9141H36.6406L34.2031 18.2969H30.7695L33.5352 13.3398C32.7773 12.9883 32.1914 12.5117 31.7773 11.9102C31.3711 11.3086 31.168 10.625 31.168 9.85938C31.168 8.63281 31.6406 7.62891 32.5859 6.84766C33.5391 6.05859 34.8125 5.64844 36.4062 5.61719H42.1602ZM36.4648 11.5469H38.7852V8.33594H36.582C35.9805 8.33594 35.4922 8.49609 35.1172 8.81641C34.7422 9.12891 34.5547 9.51172 34.5547 9.96484C34.5547 10.418 34.7344 10.793 35.0938 11.0898C35.4531 11.3867 35.9102 11.5391 36.4648 11.5469Z" fill="white"/>
<path d="M57.2188 13.5977H55.6836V18.2969H52.2969V13.5977H50.7852L48.2656 18.2969H44.1758L48.1719 11.6641L44.2227 5.61719H48.418L51.0547 10.3516H52.2969V5.61719H55.6836V10.3516H56.9492L59.5977 5.61719H63.793L59.8672 11.582L63.8984 18.2969H59.7383L57.2188 13.5977Z" fill="white"/>
<path d="M73.168 5.61719H76.5547V18.2969H73.168V10.4688L68.9258 18.2969H65.5273V5.61719H68.9258V13.4336L73.168 5.61719Z" fill="white"/>
<path d="M89.668 8.33594H85.6016V18.2969H82.2031V8.33594H78.207V5.61719H89.668V8.33594Z" fill="white"/>
<path d="M96.4648 18.5312C94.6055 18.5312 93.0898 17.9609 91.918 16.8203C90.7539 15.6797 90.1719 14.1602 90.1719 12.2617V11.9336C90.1719 10.6602 90.418 9.52344 90.9102 8.52344C91.4023 7.51562 92.0977 6.74219 92.9961 6.20312C93.9023 5.65625 94.9336 5.38281 96.0898 5.38281C97.8242 5.38281 99.1875 5.92969 100.18 7.02344C101.18 8.11719 101.68 9.66797 101.68 11.6758V13.0586H93.6055C93.7148 13.8867 94.043 14.5508 94.5898 15.0508C95.1445 15.5508 95.8438 15.8008 96.6875 15.8008C97.9922 15.8008 99.0117 15.3281 99.7461 14.3828L101.41 16.2461C100.902 16.9648 100.215 17.5273 99.3477 17.9336C98.4805 18.332 97.5195 18.5312 96.4648 18.5312ZM96.0781 8.125C95.4062 8.125 94.8594 8.35156 94.4375 8.80469C94.0234 9.25781 93.7578 9.90625 93.6406 10.75H98.3516V10.4805C98.3359 9.73047 98.1328 9.15234 97.7422 8.74609C97.3516 8.33203 96.7969 8.125 96.0781 8.125Z" fill="white"/>
<path d="M108.887 15.8008C109.512 15.8008 110.02 15.6289 110.41 15.2852C110.801 14.9414 111.004 14.4844 111.02 13.9141H114.195C114.188 14.7734 113.953 15.5625 113.492 16.2812C113.031 16.9922 112.398 17.5469 111.594 17.9453C110.797 18.3359 109.914 18.5312 108.945 18.5312C107.133 18.5312 105.703 17.957 104.656 16.8086C103.609 15.6523 103.086 14.0586 103.086 12.0273V11.8047C103.086 9.85156 103.605 8.29297 104.645 7.12891C105.684 5.96484 107.109 5.38281 108.922 5.38281C110.508 5.38281 111.777 5.83594 112.73 6.74219C113.691 7.64062 114.18 8.83984 114.195 10.3398H111.02C111.004 9.68359 110.801 9.15234 110.41 8.74609C110.02 8.33203 109.504 8.125 108.863 8.125C108.074 8.125 107.477 8.41406 107.07 8.99219C106.672 9.5625 106.473 10.4922 106.473 11.7812V12.1328C106.473 13.4375 106.672 14.375 107.07 14.9453C107.469 15.5156 108.074 15.8008 108.887 15.8008Z" fill="white"/>
<path d="M119.75 9.33203H122.176C123.27 9.33203 124.23 9.51562 125.059 9.88281C125.887 10.25 126.52 10.7773 126.957 11.4648C127.402 12.1445 127.625 12.9375 127.625 13.8438C127.625 15.1797 127.129 16.2578 126.137 17.0781C125.152 17.8906 123.809 18.2969 122.105 18.2969H116.352V5.61719H119.75V9.33203ZM119.75 12.0508V15.5898H122.152C122.824 15.5898 123.34 15.4336 123.699 15.1211C124.059 14.8086 124.238 14.3828 124.238 13.8438C124.238 13.2969 124.062 12.8633 123.711 12.543C123.359 12.2148 122.84 12.0508 122.152 12.0508H119.75Z" fill="white"/>
<path d="M140.785 15.8008C141.41 15.8008 141.918 15.6289 142.309 15.2852C142.699 14.9414 142.902 14.4844 142.918 13.9141H146.094C146.086 14.7734 145.852 15.5625 145.391 16.2812C144.93 16.9922 144.297 17.5469 143.492 17.9453C142.695 18.3359 141.812 18.5312 140.844 18.5312C139.031 18.5312 137.602 17.957 136.555 16.8086C135.508 15.6523 134.984 14.0586 134.984 12.0273V11.8047C134.984 9.85156 135.504 8.29297 136.543 7.12891C137.582 5.96484 139.008 5.38281 140.82 5.38281C142.406 5.38281 143.676 5.83594 144.629 6.74219C145.59 7.64062 146.078 8.83984 146.094 10.3398H142.918C142.902 9.68359 142.699 9.15234 142.309 8.74609C141.918 8.33203 141.402 8.125 140.762 8.125C139.973 8.125 139.375 8.41406 138.969 8.99219C138.57 9.5625 138.371 10.4922 138.371 11.7812V12.1328C138.371 13.4375 138.57 14.375 138.969 14.9453C139.367 15.5156 139.973 15.8008 140.785 15.8008Z" fill="white"/>
<path d="M164.996 18.2969H161.598V13.4219H157.391V18.2969H154.004V5.61719H157.391V10.7031H161.598V5.61719H164.996V18.2969Z" fill="white"/>
<path d="M174.969 18.2969C174.812 17.9922 174.699 17.6133 174.629 17.1602C173.809 18.0742 172.742 18.5312 171.43 18.5312C170.188 18.5312 169.156 18.1719 168.336 17.4531C167.523 16.7344 167.117 15.8281 167.117 14.7344C167.117 13.3906 167.613 12.3594 168.605 11.6406C169.605 10.9219 171.047 10.5586 172.93 10.5508H174.488V9.82422C174.488 9.23828 174.336 8.76953 174.031 8.41797C173.734 8.06641 173.262 7.89062 172.613 7.89062C172.043 7.89062 171.594 8.02734 171.266 8.30078C170.945 8.57422 170.785 8.94922 170.785 9.42578H167.398C167.398 8.69141 167.625 8.01172 168.078 7.38672C168.531 6.76172 169.172 6.27344 170 5.92188C170.828 5.5625 171.758 5.38281 172.789 5.38281C174.352 5.38281 175.59 5.77734 176.504 6.56641C177.426 7.34766 177.887 8.44922 177.887 9.87109V15.3672C177.895 16.5703 178.062 17.4805 178.391 18.0977V18.2969H174.969ZM172.168 15.9414C172.668 15.9414 173.129 15.832 173.551 15.6133C173.973 15.3867 174.285 15.0859 174.488 14.7109V12.5312H173.223C171.527 12.5312 170.625 13.1172 170.516 14.2891L170.504 14.4883C170.504 14.9102 170.652 15.2578 170.949 15.5312C171.246 15.8047 171.652 15.9414 172.168 15.9414Z" fill="white"/>
<path d="M188.211 14.3008L191.527 5.61719H195.77V18.2969H192.383V10.5156L189.348 18.2969H187.074L184.098 10.6445V18.2969H180.711V5.61719H184.918L188.211 14.3008Z" fill="white"/>
<path d="M206.363 5.61719H209.75V18.2969H206.363V10.4688L202.121 18.2969H198.723V5.61719H202.121V13.4336L206.363 5.61719Z" fill="white"/>
</mask>
<g mask="url(#mask0)">
<rect x="214" y="1.29688" width="23" height="218" transform="rotate(90 214 1.29688)" fill="#00F0FF"/>
</g>
</g>
<g style="mix-blend-mode:hue">
<mask id="mask1" mask-type="alpha" maskUnits="userSpaceOnUse" x="3" y="1" width="208" height="18">
<path d="M16.9102 12.6133C16.7773 14.4492 16.0977 15.8945 14.8711 16.9492C13.6523 18.0039 12.043 18.5312 10.043 18.5312C7.85547 18.5312 6.13281 17.7969 4.875 16.3281C3.625 14.8516 3 12.8281 3 10.2578V9.21484C3 7.57422 3.28906 6.12891 3.86719 4.87891C4.44531 3.62891 5.26953 2.67188 6.33984 2.00781C7.41797 1.33594 8.66797 1 10.0898 1C12.0586 1 13.6445 1.52734 14.8477 2.58203C16.0508 3.63672 16.7461 5.11719 16.9336 7.02344H13.418C13.332 5.92188 13.0234 5.125 12.4922 4.63281C11.9688 4.13281 11.168 3.88281 10.0898 3.88281C8.91797 3.88281 8.03906 4.30469 7.45312 5.14844C6.875 5.98438 6.57812 7.28516 6.5625 9.05078V10.3398C6.5625 12.1836 6.83984 13.5312 7.39453 14.3828C7.95703 15.2344 8.83984 15.6602 10.043 15.6602C11.1289 15.6602 11.9375 15.4141 12.4688 14.9219C13.0078 14.4219 13.3164 13.6523 13.3945 12.6133H16.9102Z" fill="white"/>
<path d="M19.2188 18.2969V5.61719H24.5156C26.2422 5.61719 27.5664 5.92188 28.4883 6.53125C29.4102 7.14062 29.8711 8.01562 29.8711 9.15625C29.8711 9.74219 29.6758 10.2695 29.2852 10.7383C28.9023 11.1992 28.3398 11.5547 27.5977 11.8047C28.5039 11.9766 29.2148 12.3164 29.7305 12.8242C30.2539 13.3242 30.5156 13.9414 30.5156 14.6758C30.5156 15.8555 30.0703 16.7539 29.1797 17.3711C28.2969 17.9883 27.0117 18.2969 25.3242 18.2969H19.2188ZM22.6055 13.0352V15.5898H25.3359C26.5312 15.5898 27.1289 15.1719 27.1289 14.3359C27.1289 13.4844 26.5586 13.0508 25.418 13.0352H22.6055ZM22.6055 10.7617H24.7031C25.8906 10.7461 26.4844 10.3633 26.4844 9.61328C26.4844 9.15234 26.3203 8.82422 25.9922 8.62891C25.6719 8.43359 25.1797 8.33594 24.5156 8.33594H22.6055V10.7617Z" fill="white"/>
<path d="M43.1602 5.61719V18.2969H39.7852V13.9141H37.6406L35.2031 18.2969H31.7695L34.5352 13.3398C33.7773 12.9883 33.1914 12.5117 32.7773 11.9102C32.3711 11.3086 32.168 10.625 32.168 9.85938C32.168 8.63281 32.6406 7.62891 33.5859 6.84766C34.5391 6.05859 35.8125 5.64844 37.4062 5.61719H43.1602ZM37.4648 11.5469H39.7852V8.33594H37.582C36.9805 8.33594 36.4922 8.49609 36.1172 8.81641C35.7422 9.12891 35.5547 9.51172 35.5547 9.96484C35.5547 10.418 35.7344 10.793 36.0938 11.0898C36.4531 11.3867 36.9102 11.5391 37.4648 11.5469Z" fill="white"/>
<path d="M58.2188 13.5977H56.6836V18.2969H53.2969V13.5977H51.7852L49.2656 18.2969H45.1758L49.1719 11.6641L45.2227 5.61719H49.418L52.0547 10.3516H53.2969V5.61719H56.6836V10.3516H57.9492L60.5977 5.61719H64.793L60.8672 11.582L64.8984 18.2969H60.7383L58.2188 13.5977Z" fill="white"/>
<path d="M74.168 5.61719H77.5547V18.2969H74.168V10.4688L69.9258 18.2969H66.5273V5.61719H69.9258V13.4336L74.168 5.61719Z" fill="white"/>
<path d="M90.668 8.33594H86.6016V18.2969H83.2031V8.33594H79.207V5.61719H90.668V8.33594Z" fill="white"/>
<path d="M97.4648 18.5312C95.6055 18.5312 94.0898 17.9609 92.918 16.8203C91.7539 15.6797 91.1719 14.1602 91.1719 12.2617V11.9336C91.1719 10.6602 91.418 9.52344 91.9102 8.52344C92.4023 7.51562 93.0977 6.74219 93.9961 6.20312C94.9023 5.65625 95.9336 5.38281 97.0898 5.38281C98.8242 5.38281 100.188 5.92969 101.18 7.02344C102.18 8.11719 102.68 9.66797 102.68 11.6758V13.0586H94.6055C94.7148 13.8867 95.043 14.5508 95.5898 15.0508C96.1445 15.5508 96.8438 15.8008 97.6875 15.8008C98.9922 15.8008 100.012 15.3281 100.746 14.3828L102.41 16.2461C101.902 16.9648 101.215 17.5273 100.348 17.9336C99.4805 18.332 98.5195 18.5312 97.4648 18.5312ZM97.0781 8.125C96.4062 8.125 95.8594 8.35156 95.4375 8.80469C95.0234 9.25781 94.7578 9.90625 94.6406 10.75H99.3516V10.4805C99.3359 9.73047 99.1328 9.15234 98.7422 8.74609C98.3516 8.33203 97.7969 8.125 97.0781 8.125Z" fill="white"/>
<path d="M109.887 15.8008C110.512 15.8008 111.02 15.6289 111.41 15.2852C111.801 14.9414 112.004 14.4844 112.02 13.9141H115.195C115.188 14.7734 114.953 15.5625 114.492 16.2812C114.031 16.9922 113.398 17.5469 112.594 17.9453C111.797 18.3359 110.914 18.5312 109.945 18.5312C108.133 18.5312 106.703 17.957 105.656 16.8086C104.609 15.6523 104.086 14.0586 104.086 12.0273V11.8047C104.086 9.85156 104.605 8.29297 105.645 7.12891C106.684 5.96484 108.109 5.38281 109.922 5.38281C111.508 5.38281 112.777 5.83594 113.73 6.74219C114.691 7.64062 115.18 8.83984 115.195 10.3398H112.02C112.004 9.68359 111.801 9.15234 111.41 8.74609C111.02 8.33203 110.504 8.125 109.863 8.125C109.074 8.125 108.477 8.41406 108.07 8.99219C107.672 9.5625 107.473 10.4922 107.473 11.7812V12.1328C107.473 13.4375 107.672 14.375 108.07 14.9453C108.469 15.5156 109.074 15.8008 109.887 15.8008Z" fill="white"/>
<path d="M120.75 9.33203H123.176C124.27 9.33203 125.23 9.51562 126.059 9.88281C126.887 10.25 127.52 10.7773 127.957 11.4648C128.402 12.1445 128.625 12.9375 128.625 13.8438C128.625 15.1797 128.129 16.2578 127.137 17.0781C126.152 17.8906 124.809 18.2969 123.105 18.2969H117.352V5.61719H120.75V9.33203ZM120.75 12.0508V15.5898H123.152C123.824 15.5898 124.34 15.4336 124.699 15.1211C125.059 14.8086 125.238 14.3828 125.238 13.8438C125.238 13.2969 125.062 12.8633 124.711 12.543C124.359 12.2148 123.84 12.0508 123.152 12.0508H120.75Z" fill="white"/>
<path d="M141.785 15.8008C142.41 15.8008 142.918 15.6289 143.309 15.2852C143.699 14.9414 143.902 14.4844 143.918 13.9141H147.094C147.086 14.7734 146.852 15.5625 146.391 16.2812C145.93 16.9922 145.297 17.5469 144.492 17.9453C143.695 18.3359 142.812 18.5312 141.844 18.5312C140.031 18.5312 138.602 17.957 137.555 16.8086C136.508 15.6523 135.984 14.0586 135.984 12.0273V11.8047C135.984 9.85156 136.504 8.29297 137.543 7.12891C138.582 5.96484 140.008 5.38281 141.82 5.38281C143.406 5.38281 144.676 5.83594 145.629 6.74219C146.59 7.64062 147.078 8.83984 147.094 10.3398H143.918C143.902 9.68359 143.699 9.15234 143.309 8.74609C142.918 8.33203 142.402 8.125 141.762 8.125C140.973 8.125 140.375 8.41406 139.969 8.99219C139.57 9.5625 139.371 10.4922 139.371 11.7812V12.1328C139.371 13.4375 139.57 14.375 139.969 14.9453C140.367 15.5156 140.973 15.8008 141.785 15.8008Z" fill="white"/>
<path d="M165.996 18.2969H162.598V13.4219H158.391V18.2969H155.004V5.61719H158.391V10.7031H162.598V5.61719H165.996V18.2969Z" fill="white"/>
<path d="M175.969 18.2969C175.812 17.9922 175.699 17.6133 175.629 17.1602C174.809 18.0742 173.742 18.5312 172.43 18.5312C171.188 18.5312 170.156 18.1719 169.336 17.4531C168.523 16.7344 168.117 15.8281 168.117 14.7344C168.117 13.3906 168.613 12.3594 169.605 11.6406C170.605 10.9219 172.047 10.5586 173.93 10.5508H175.488V9.82422C175.488 9.23828 175.336 8.76953 175.031 8.41797C174.734 8.06641 174.262 7.89062 173.613 7.89062C173.043 7.89062 172.594 8.02734 172.266 8.30078C171.945 8.57422 171.785 8.94922 171.785 9.42578H168.398C168.398 8.69141 168.625 8.01172 169.078 7.38672C169.531 6.76172 170.172 6.27344 171 5.92188C171.828 5.5625 172.758 5.38281 173.789 5.38281C175.352 5.38281 176.59 5.77734 177.504 6.56641C178.426 7.34766 178.887 8.44922 178.887 9.87109V15.3672C178.895 16.5703 179.062 17.4805 179.391 18.0977V18.2969H175.969ZM173.168 15.9414C173.668 15.9414 174.129 15.832 174.551 15.6133C174.973 15.3867 175.285 15.0859 175.488 14.7109V12.5312H174.223C172.527 12.5312 171.625 13.1172 171.516 14.2891L171.504 14.4883C171.504 14.9102 171.652 15.2578 171.949 15.5312C172.246 15.8047 172.652 15.9414 173.168 15.9414Z" fill="white"/>
<path d="M189.211 14.3008L192.527 5.61719H196.77V18.2969H193.383V10.5156L190.348 18.2969H188.074L185.098 10.6445V18.2969H181.711V5.61719H185.918L189.211 14.3008Z" fill="white"/>
<path d="M207.363 5.61719H210.75V18.2969H207.363V10.4688L203.121 18.2969H199.723V5.61719H203.121V13.4336L207.363 5.61719Z" fill="white"/>
</mask>
<g mask="url(#mask1)">
<rect x="211" y="-2.70312" width="22" height="215" transform="rotate(90 211 -2.70312)" fill="#00F0FF"/>
</g>
</g>
<g style="mix-blend-mode:difference">
<mask id="mask2" mask-type="alpha" maskUnits="userSpaceOnUse" x="2" y="0" width="208" height="18">
<path d="M15.9102 11.9102C15.7773 13.7461 15.0977 15.1914 13.8711 16.2461C12.6523 17.3008 11.043 17.8281 9.04297 17.8281C6.85547 17.8281 5.13281 17.0938 3.875 15.625C2.625 14.1484 2 12.125 2 9.55469V8.51172C2 6.87109 2.28906 5.42578 2.86719 4.17578C3.44531 2.92578 4.26953 1.96875 5.33984 1.30469C6.41797 0.632812 7.66797 0.296875 9.08984 0.296875C11.0586 0.296875 12.6445 0.824219 13.8477 1.87891C15.0508 2.93359 15.7461 4.41406 15.9336 6.32031H12.418C12.332 5.21875 12.0234 4.42188 11.4922 3.92969C10.9688 3.42969 10.168 3.17969 9.08984 3.17969C7.91797 3.17969 7.03906 3.60156 6.45312 4.44531C5.875 5.28125 5.57812 6.58203 5.5625 8.34766V9.63672C5.5625 11.4805 5.83984 12.8281 6.39453 13.6797C6.95703 14.5312 7.83984 14.957 9.04297 14.957C10.1289 14.957 10.9375 14.7109 11.4688 14.2188C12.0078 13.7188 12.3164 12.9492 12.3945 11.9102H15.9102Z" fill="white"/>
<path d="M18.2188 17.5938V4.91406H23.5156C25.2422 4.91406 26.5664 5.21875 27.4883 5.82812C28.4102 6.4375 28.8711 7.3125 28.8711 8.45312C28.8711 9.03906 28.6758 9.56641 28.2852 10.0352C27.9023 10.4961 27.3398 10.8516 26.5977 11.1016C27.5039 11.2734 28.2148 11.6133 28.7305 12.1211C29.2539 12.6211 29.5156 13.2383 29.5156 13.9727C29.5156 15.1523 29.0703 16.0508 28.1797 16.668C27.2969 17.2852 26.0117 17.5938 24.3242 17.5938H18.2188ZM21.6055 12.332V14.8867H24.3359C25.5312 14.8867 26.1289 14.4688 26.1289 13.6328C26.1289 12.7812 25.5586 12.3477 24.418 12.332H21.6055ZM21.6055 10.0586H23.7031C24.8906 10.043 25.4844 9.66016 25.4844 8.91016C25.4844 8.44922 25.3203 8.12109 24.9922 7.92578C24.6719 7.73047 24.1797 7.63281 23.5156 7.63281H21.6055V10.0586Z" fill="white"/>
<path d="M42.1602 4.91406V17.5938H38.7852V13.2109H36.6406L34.2031 17.5938H30.7695L33.5352 12.6367C32.7773 12.2852 32.1914 11.8086 31.7773 11.207C31.3711 10.6055 31.168 9.92188 31.168 9.15625C31.168 7.92969 31.6406 6.92578 32.5859 6.14453C33.5391 5.35547 34.8125 4.94531 36.4062 4.91406H42.1602ZM36.4648 10.8438H38.7852V7.63281H36.582C35.9805 7.63281 35.4922 7.79297 35.1172 8.11328C34.7422 8.42578 34.5547 8.80859 34.5547 9.26172C34.5547 9.71484 34.7344 10.0898 35.0938 10.3867C35.4531 10.6836 35.9102 10.8359 36.4648 10.8438Z" fill="white"/>
<path d="M57.2188 12.8945H55.6836V17.5938H52.2969V12.8945H50.7852L48.2656 17.5938H44.1758L48.1719 10.9609L44.2227 4.91406H48.418L51.0547 9.64844H52.2969V4.91406H55.6836V9.64844H56.9492L59.5977 4.91406H63.793L59.8672 10.8789L63.8984 17.5938H59.7383L57.2188 12.8945Z" fill="white"/>
<path d="M73.168 4.91406H76.5547V17.5938H73.168V9.76562L68.9258 17.5938H65.5273V4.91406H68.9258V12.7305L73.168 4.91406Z" fill="white"/>
<path d="M89.668 7.63281H85.6016V17.5938H82.2031V7.63281H78.207V4.91406H89.668V7.63281Z" fill="white"/>
<path d="M96.4648 17.8281C94.6055 17.8281 93.0898 17.2578 91.918 16.1172C90.7539 14.9766 90.1719 13.457 90.1719 11.5586V11.2305C90.1719 9.95703 90.418 8.82031 90.9102 7.82031C91.4023 6.8125 92.0977 6.03906 92.9961 5.5C93.9023 4.95312 94.9336 4.67969 96.0898 4.67969C97.8242 4.67969 99.1875 5.22656 100.18 6.32031C101.18 7.41406 101.68 8.96484 101.68 10.9727V12.3555H93.6055C93.7148 13.1836 94.043 13.8477 94.5898 14.3477C95.1445 14.8477 95.8438 15.0977 96.6875 15.0977C97.9922 15.0977 99.0117 14.625 99.7461 13.6797L101.41 15.543C100.902 16.2617 100.215 16.8242 99.3477 17.2305C98.4805 17.6289 97.5195 17.8281 96.4648 17.8281ZM96.0781 7.42188C95.4062 7.42188 94.8594 7.64844 94.4375 8.10156C94.0234 8.55469 93.7578 9.20312 93.6406 10.0469H98.3516V9.77734C98.3359 9.02734 98.1328 8.44922 97.7422 8.04297C97.3516 7.62891 96.7969 7.42188 96.0781 7.42188Z" fill="white"/>
<path d="M108.887 15.0977C109.512 15.0977 110.02 14.9258 110.41 14.582C110.801 14.2383 111.004 13.7812 111.02 13.2109H114.195C114.188 14.0703 113.953 14.8594 113.492 15.5781C113.031 16.2891 112.398 16.8438 111.594 17.2422C110.797 17.6328 109.914 17.8281 108.945 17.8281C107.133 17.8281 105.703 17.2539 104.656 16.1055C103.609 14.9492 103.086 13.3555 103.086 11.3242V11.1016C103.086 9.14844 103.605 7.58984 104.645 6.42578C105.684 5.26172 107.109 4.67969 108.922 4.67969C110.508 4.67969 111.777 5.13281 112.73 6.03906C113.691 6.9375 114.18 8.13672 114.195 9.63672H111.02C111.004 8.98047 110.801 8.44922 110.41 8.04297C110.02 7.62891 109.504 7.42188 108.863 7.42188C108.074 7.42188 107.477 7.71094 107.07 8.28906C106.672 8.85938 106.473 9.78906 106.473 11.0781V11.4297C106.473 12.7344 106.672 13.6719 107.07 14.2422C107.469 14.8125 108.074 15.0977 108.887 15.0977Z" fill="white"/>
<path d="M119.75 8.62891H122.176C123.27 8.62891 124.23 8.8125 125.059 9.17969C125.887 9.54688 126.52 10.0742 126.957 10.7617C127.402 11.4414 127.625 12.2344 127.625 13.1406C127.625 14.4766 127.129 15.5547 126.137 16.375C125.152 17.1875 123.809 17.5938 122.105 17.5938H116.352V4.91406H119.75V8.62891ZM119.75 11.3477V14.8867H122.152C122.824 14.8867 123.34 14.7305 123.699 14.418C124.059 14.1055 124.238 13.6797 124.238 13.1406C124.238 12.5938 124.062 12.1602 123.711 11.8398C123.359 11.5117 122.84 11.3477 122.152 11.3477H119.75Z" fill="white"/>
<path d="M140.785 15.0977C141.41 15.0977 141.918 14.9258 142.309 14.582C142.699 14.2383 142.902 13.7812 142.918 13.2109H146.094C146.086 14.0703 145.852 14.8594 145.391 15.5781C144.93 16.2891 144.297 16.8438 143.492 17.2422C142.695 17.6328 141.812 17.8281 140.844 17.8281C139.031 17.8281 137.602 17.2539 136.555 16.1055C135.508 14.9492 134.984 13.3555 134.984 11.3242V11.1016C134.984 9.14844 135.504 7.58984 136.543 6.42578C137.582 5.26172 139.008 4.67969 140.82 4.67969C142.406 4.67969 143.676 5.13281 144.629 6.03906C145.59 6.9375 146.078 8.13672 146.094 9.63672H142.918C142.902 8.98047 142.699 8.44922 142.309 8.04297C141.918 7.62891 141.402 7.42188 140.762 7.42188C139.973 7.42188 139.375 7.71094 138.969 8.28906C138.57 8.85938 138.371 9.78906 138.371 11.0781V11.4297C138.371 12.7344 138.57 13.6719 138.969 14.2422C139.367 14.8125 139.973 15.0977 140.785 15.0977Z" fill="white"/>
<path d="M164.996 17.5938H161.598V12.7188H157.391V17.5938H154.004V4.91406H157.391V10H161.598V4.91406H164.996V17.5938Z" fill="white"/>
<path d="M174.969 17.5938C174.812 17.2891 174.699 16.9102 174.629 16.457C173.809 17.3711 172.742 17.8281 171.43 17.8281C170.188 17.8281 169.156 17.4688 168.336 16.75C167.523 16.0312 167.117 15.125 167.117 14.0312C167.117 12.6875 167.613 11.6562 168.605 10.9375C169.605 10.2188 171.047 9.85547 172.93 9.84766H174.488V9.12109C174.488 8.53516 174.336 8.06641 174.031 7.71484C173.734 7.36328 173.262 7.1875 172.613 7.1875C172.043 7.1875 171.594 7.32422 171.266 7.59766C170.945 7.87109 170.785 8.24609 170.785 8.72266H167.398C167.398 7.98828 167.625 7.30859 168.078 6.68359C168.531 6.05859 169.172 5.57031 170 5.21875C170.828 4.85938 171.758 4.67969 172.789 4.67969C174.352 4.67969 175.59 5.07422 176.504 5.86328C177.426 6.64453 177.887 7.74609 177.887 9.16797V14.6641C177.895 15.8672 178.062 16.7773 178.391 17.3945V17.5938H174.969ZM172.168 15.2383C172.668 15.2383 173.129 15.1289 173.551 14.9102C173.973 14.6836 174.285 14.3828 174.488 14.0078V11.8281H173.223C171.527 11.8281 170.625 12.4141 170.516 13.5859L170.504 13.7852C170.504 14.207 170.652 14.5547 170.949 14.8281C171.246 15.1016 171.652 15.2383 172.168 15.2383Z" fill="white"/>
<path d="M188.211 13.5977L191.527 4.91406H195.77V17.5938H192.383V9.8125L189.348 17.5938H187.074L184.098 9.94141V17.5938H180.711V4.91406H184.918L188.211 13.5977Z" fill="white"/>
<path d="M206.363 4.91406H209.75V17.5938H206.363V9.76562L202.121 17.5938H198.723V4.91406H202.121V12.7305L206.363 4.91406Z" fill="white"/>
</mask>
<g mask="url(#mask2)">
<rect x="213" y="-1.70312" width="11" height="216" transform="rotate(90 213 -1.70312)" fill="#D41F7C"/>
</g>
</g>
<g style="mix-blend-mode:difference">
<mask id="mask3" mask-type="alpha" maskUnits="userSpaceOnUse" x="1" y="0" width="208" height="18">
<path d="M14.9102 11.6133C14.7773 13.4492 14.0977 14.8945 12.8711 15.9492C11.6523 17.0039 10.043 17.5312 8.04297 17.5312C5.85547 17.5312 4.13281 16.7969 2.875 15.3281C1.625 13.8516 1 11.8281 1 9.25781V8.21484C1 6.57422 1.28906 5.12891 1.86719 3.87891C2.44531 2.62891 3.26953 1.67188 4.33984 1.00781C5.41797 0.335938 6.66797 0 8.08984 0C10.0586 0 11.6445 0.527344 12.8477 1.58203C14.0508 2.63672 14.7461 4.11719 14.9336 6.02344H11.418C11.332 4.92188 11.0234 4.125 10.4922 3.63281C9.96875 3.13281 9.16797 2.88281 8.08984 2.88281C6.91797 2.88281 6.03906 3.30469 5.45312 4.14844C4.875 4.98438 4.57812 6.28516 4.5625 8.05078V9.33984C4.5625 11.1836 4.83984 12.5312 5.39453 13.3828C5.95703 14.2344 6.83984 14.6602 8.04297 14.6602C9.12891 14.6602 9.9375 14.4141 10.4688 13.9219C11.0078 13.4219 11.3164 12.6523 11.3945 11.6133H14.9102Z" fill="white"/>
<path d="M17.2188 17.2969V4.61719H22.5156C24.2422 4.61719 25.5664 4.92188 26.4883 5.53125C27.4102 6.14062 27.8711 7.01562 27.8711 8.15625C27.8711 8.74219 27.6758 9.26953 27.2852 9.73828C26.9023 10.1992 26.3398 10.5547 25.5977 10.8047C26.5039 10.9766 27.2148 11.3164 27.7305 11.8242C28.2539 12.3242 28.5156 12.9414 28.5156 13.6758C28.5156 14.8555 28.0703 15.7539 27.1797 16.3711C26.2969 16.9883 25.0117 17.2969 23.3242 17.2969H17.2188ZM20.6055 12.0352V14.5898H23.3359C24.5312 14.5898 25.1289 14.1719 25.1289 13.3359C25.1289 12.4844 24.5586 12.0508 23.418 12.0352H20.6055ZM20.6055 9.76172H22.7031C23.8906 9.74609 24.4844 9.36328 24.4844 8.61328C24.4844 8.15234 24.3203 7.82422 23.9922 7.62891C23.6719 7.43359 23.1797 7.33594 22.5156 7.33594H20.6055V9.76172Z" fill="white"/>
<path d="M41.1602 4.61719V17.2969H37.7852V12.9141H35.6406L33.2031 17.2969H29.7695L32.5352 12.3398C31.7773 11.9883 31.1914 11.5117 30.7773 10.9102C30.3711 10.3086 30.168 9.625 30.168 8.85938C30.168 7.63281 30.6406 6.62891 31.5859 5.84766C32.5391 5.05859 33.8125 4.64844 35.4062 4.61719H41.1602ZM35.4648 10.5469H37.7852V7.33594H35.582C34.9805 7.33594 34.4922 7.49609 34.1172 7.81641C33.7422 8.12891 33.5547 8.51172 33.5547 8.96484C33.5547 9.41797 33.7344 9.79297 34.0938 10.0898C34.4531 10.3867 34.9102 10.5391 35.4648 10.5469Z" fill="white"/>
<path d="M56.2188 12.5977H54.6836V17.2969H51.2969V12.5977H49.7852L47.2656 17.2969H43.1758L47.1719 10.6641L43.2227 4.61719H47.418L50.0547 9.35156H51.2969V4.61719H54.6836V9.35156H55.9492L58.5977 4.61719H62.793L58.8672 10.582L62.8984 17.2969H58.7383L56.2188 12.5977Z" fill="white"/>
<path d="M72.168 4.61719H75.5547V17.2969H72.168V9.46875L67.9258 17.2969H64.5273V4.61719H67.9258V12.4336L72.168 4.61719Z" fill="white"/>
<path d="M88.668 7.33594H84.6016V17.2969H81.2031V7.33594H77.207V4.61719H88.668V7.33594Z" fill="white"/>
<path d="M95.4648 17.5312C93.6055 17.5312 92.0898 16.9609 90.918 15.8203C89.7539 14.6797 89.1719 13.1602 89.1719 11.2617V10.9336C89.1719 9.66016 89.418 8.52344 89.9102 7.52344C90.4023 6.51562 91.0977 5.74219 91.9961 5.20312C92.9023 4.65625 93.9336 4.38281 95.0898 4.38281C96.8242 4.38281 98.1875 4.92969 99.1797 6.02344C100.18 7.11719 100.68 8.66797 100.68 10.6758V12.0586H92.6055C92.7148 12.8867 93.043 13.5508 93.5898 14.0508C94.1445 14.5508 94.8438 14.8008 95.6875 14.8008C96.9922 14.8008 98.0117 14.3281 98.7461 13.3828L100.41 15.2461C99.9023 15.9648 99.2148 16.5273 98.3477 16.9336C97.4805 17.332 96.5195 17.5312 95.4648 17.5312ZM95.0781 7.125C94.4062 7.125 93.8594 7.35156 93.4375 7.80469C93.0234 8.25781 92.7578 8.90625 92.6406 9.75H97.3516V9.48047C97.3359 8.73047 97.1328 8.15234 96.7422 7.74609C96.3516 7.33203 95.7969 7.125 95.0781 7.125Z" fill="white"/>
<path d="M107.887 14.8008C108.512 14.8008 109.02 14.6289 109.41 14.2852C109.801 13.9414 110.004 13.4844 110.02 12.9141H113.195C113.188 13.7734 112.953 14.5625 112.492 15.2812C112.031 15.9922 111.398 16.5469 110.594 16.9453C109.797 17.3359 108.914 17.5312 107.945 17.5312C106.133 17.5312 104.703 16.957 103.656 15.8086C102.609 14.6523 102.086 13.0586 102.086 11.0273V10.8047C102.086 8.85156 102.605 7.29297 103.645 6.12891C104.684 4.96484 106.109 4.38281 107.922 4.38281C109.508 4.38281 110.777 4.83594 111.73 5.74219C112.691 6.64062 113.18 7.83984 113.195 9.33984H110.02C110.004 8.68359 109.801 8.15234 109.41 7.74609C109.02 7.33203 108.504 7.125 107.863 7.125C107.074 7.125 106.477 7.41406 106.07 7.99219C105.672 8.5625 105.473 9.49219 105.473 10.7812V11.1328C105.473 12.4375 105.672 13.375 106.07 13.9453C106.469 14.5156 107.074 14.8008 107.887 14.8008Z" fill="white"/>
<path d="M118.75 8.33203H121.176C122.27 8.33203 123.23 8.51562 124.059 8.88281C124.887 9.25 125.52 9.77734 125.957 10.4648C126.402 11.1445 126.625 11.9375 126.625 12.8438C126.625 14.1797 126.129 15.2578 125.137 16.0781C124.152 16.8906 122.809 17.2969 121.105 17.2969H115.352V4.61719H118.75V8.33203ZM118.75 11.0508V14.5898H121.152C121.824 14.5898 122.34 14.4336 122.699 14.1211C123.059 13.8086 123.238 13.3828 123.238 12.8438C123.238 12.2969 123.062 11.8633 122.711 11.543C122.359 11.2148 121.84 11.0508 121.152 11.0508H118.75Z" fill="white"/>
<path d="M139.785 14.8008C140.41 14.8008 140.918 14.6289 141.309 14.2852C141.699 13.9414 141.902 13.4844 141.918 12.9141H145.094C145.086 13.7734 144.852 14.5625 144.391 15.2812C143.93 15.9922 143.297 16.5469 142.492 16.9453C141.695 17.3359 140.812 17.5312 139.844 17.5312C138.031 17.5312 136.602 16.957 135.555 15.8086C134.508 14.6523 133.984 13.0586 133.984 11.0273V10.8047C133.984 8.85156 134.504 7.29297 135.543 6.12891C136.582 4.96484 138.008 4.38281 139.82 4.38281C141.406 4.38281 142.676 4.83594 143.629 5.74219C144.59 6.64062 145.078 7.83984 145.094 9.33984H141.918C141.902 8.68359 141.699 8.15234 141.309 7.74609C140.918 7.33203 140.402 7.125 139.762 7.125C138.973 7.125 138.375 7.41406 137.969 7.99219C137.57 8.5625 137.371 9.49219 137.371 10.7812V11.1328C137.371 12.4375 137.57 13.375 137.969 13.9453C138.367 14.5156 138.973 14.8008 139.785 14.8008Z" fill="white"/>
<path d="M163.996 17.2969H160.598V12.4219H156.391V17.2969H153.004V4.61719H156.391V9.70312H160.598V4.61719H163.996V17.2969Z" fill="white"/>
<path d="M173.969 17.2969C173.812 16.9922 173.699 16.6133 173.629 16.1602C172.809 17.0742 171.742 17.5312 170.43 17.5312C169.188 17.5312 168.156 17.1719 167.336 16.4531C166.523 15.7344 166.117 14.8281 166.117 13.7344C166.117 12.3906 166.613 11.3594 167.605 10.6406C168.605 9.92188 170.047 9.55859 171.93 9.55078H173.488V8.82422C173.488 8.23828 173.336 7.76953 173.031 7.41797C172.734 7.06641 172.262 6.89062 171.613 6.89062C171.043 6.89062 170.594 7.02734 170.266 7.30078C169.945 7.57422 169.785 7.94922 169.785 8.42578H166.398C166.398 7.69141 166.625 7.01172 167.078 6.38672C167.531 5.76172 168.172 5.27344 169 4.92188C169.828 4.5625 170.758 4.38281 171.789 4.38281C173.352 4.38281 174.59 4.77734 175.504 5.56641C176.426 6.34766 176.887 7.44922 176.887 8.87109V14.3672C176.895 15.5703 177.062 16.4805 177.391 17.0977V17.2969H173.969ZM171.168 14.9414C171.668 14.9414 172.129 14.832 172.551 14.6133C172.973 14.3867 173.285 14.0859 173.488 13.7109V11.5312H172.223C170.527 11.5312 169.625 12.1172 169.516 13.2891L169.504 13.4883C169.504 13.9102 169.652 14.2578 169.949 14.5312C170.246 14.8047 170.652 14.9414 171.168 14.9414Z" fill="white"/>
<path d="M187.211 13.3008L190.527 4.61719H194.77V17.2969H191.383V9.51562L188.348 17.2969H186.074L183.098 9.64453V17.2969H179.711V4.61719H183.918L187.211 13.3008Z" fill="white"/>
<path d="M205.363 4.61719H208.75V17.2969H205.363V9.46875L201.121 17.2969H197.723V4.61719H201.121V12.4336L205.363 4.61719Z" fill="white"/>
</mask>
<g mask="url(#mask3)">
<rect x="212" y="9.29688" width="12" height="215" transform="rotate(90 212 9.29688)" fill="#D41F7C"/>
</g>
</g>
<mask id="mask4" mask-type="alpha" maskUnits="userSpaceOnUse" x="1" y="1" width="208" height="18">
<path d="M14.9102 12.6133C14.7773 14.4492 14.0977 15.8945 12.8711 16.9492C11.6523 18.0039 10.043 18.5312 8.04297 18.5312C5.85547 18.5312 4.13281 17.7969 2.875 16.3281C1.625 14.8516 1 12.8281 1 10.2578V9.21484C1 7.57422 1.28906 6.12891 1.86719 4.87891C2.44531 3.62891 3.26953 2.67188 4.33984 2.00781C5.41797 1.33594 6.66797 1 8.08984 1C10.0586 1 11.6445 1.52734 12.8477 2.58203C14.0508 3.63672 14.7461 5.11719 14.9336 7.02344H11.418C11.332 5.92188 11.0234 5.125 10.4922 4.63281C9.96875 4.13281 9.16797 3.88281 8.08984 3.88281C6.91797 3.88281 6.03906 4.30469 5.45312 5.14844C4.875 5.98438 4.57812 7.28516 4.5625 9.05078V10.3398C4.5625 12.1836 4.83984 13.5312 5.39453 14.3828C5.95703 15.2344 6.83984 15.6602 8.04297 15.6602C9.12891 15.6602 9.9375 15.4141 10.4688 14.9219C11.0078 14.4219 11.3164 13.6523 11.3945 12.6133H14.9102Z" fill="white"/>
<path d="M17.2188 18.2969V5.61719H22.5156C24.2422 5.61719 25.5664 5.92188 26.4883 6.53125C27.4102 7.14062 27.8711 8.01562 27.8711 9.15625C27.8711 9.74219 27.6758 10.2695 27.2852 10.7383C26.9023 11.1992 26.3398 11.5547 25.5977 11.8047C26.5039 11.9766 27.2148 12.3164 27.7305 12.8242C28.2539 13.3242 28.5156 13.9414 28.5156 14.6758C28.5156 15.8555 28.0703 16.7539 27.1797 17.3711C26.2969 17.9883 25.0117 18.2969 23.3242 18.2969H17.2188ZM20.6055 13.0352V15.5898H23.3359C24.5312 15.5898 25.1289 15.1719 25.1289 14.3359C25.1289 13.4844 24.5586 13.0508 23.418 13.0352H20.6055ZM20.6055 10.7617H22.7031C23.8906 10.7461 24.4844 10.3633 24.4844 9.61328C24.4844 9.15234 24.3203 8.82422 23.9922 8.62891C23.6719 8.43359 23.1797 8.33594 22.5156 8.33594H20.6055V10.7617Z" fill="white"/>
<path d="M41.1602 5.61719V18.2969H37.7852V13.9141H35.6406L33.2031 18.2969H29.7695L32.5352 13.3398C31.7773 12.9883 31.1914 12.5117 30.7773 11.9102C30.3711 11.3086 30.168 10.625 30.168 9.85938C30.168 8.63281 30.6406 7.62891 31.5859 6.84766C32.5391 6.05859 33.8125 5.64844 35.4062 5.61719H41.1602ZM35.4648 11.5469H37.7852V8.33594H35.582C34.9805 8.33594 34.4922 8.49609 34.1172 8.81641C33.7422 9.12891 33.5547 9.51172 33.5547 9.96484C33.5547 10.418 33.7344 10.793 34.0938 11.0898C34.4531 11.3867 34.9102 11.5391 35.4648 11.5469Z" fill="white"/>
<path d="M56.2188 13.5977H54.6836V18.2969H51.2969V13.5977H49.7852L47.2656 18.2969H43.1758L47.1719 11.6641L43.2227 5.61719H47.418L50.0547 10.3516H51.2969V5.61719H54.6836V10.3516H55.9492L58.5977 5.61719H62.793L58.8672 11.582L62.8984 18.2969H58.7383L56.2188 13.5977Z" fill="white"/>
<path d="M72.168 5.61719H75.5547V18.2969H72.168V10.4688L67.9258 18.2969H64.5273V5.61719H67.9258V13.4336L72.168 5.61719Z" fill="white"/>
<path d="M88.668 8.33594H84.6016V18.2969H81.2031V8.33594H77.207V5.61719H88.668V8.33594Z" fill="white"/>
<path d="M95.4648 18.5312C93.6055 18.5312 92.0898 17.9609 90.918 16.8203C89.7539 15.6797 89.1719 14.1602 89.1719 12.2617V11.9336C89.1719 10.6602 89.418 9.52344 89.9102 8.52344C90.4023 7.51562 91.0977 6.74219 91.9961 6.20312C92.9023 5.65625 93.9336 5.38281 95.0898 5.38281C96.8242 5.38281 98.1875 5.92969 99.1797 7.02344C100.18 8.11719 100.68 9.66797 100.68 11.6758V13.0586H92.6055C92.7148 13.8867 93.043 14.5508 93.5898 15.0508C94.1445 15.5508 94.8438 15.8008 95.6875 15.8008C96.9922 15.8008 98.0117 15.3281 98.7461 14.3828L100.41 16.2461C99.9023 16.9648 99.2148 17.5273 98.3477 17.9336C97.4805 18.332 96.5195 18.5312 95.4648 18.5312ZM95.0781 8.125C94.4062 8.125 93.8594 8.35156 93.4375 8.80469C93.0234 9.25781 92.7578 9.90625 92.6406 10.75H97.3516V10.4805C97.3359 9.73047 97.1328 9.15234 96.7422 8.74609C96.3516 8.33203 95.7969 8.125 95.0781 8.125Z" fill="white"/>
<path d="M107.887 15.8008C108.512 15.8008 109.02 15.6289 109.41 15.2852C109.801 14.9414 110.004 14.4844 110.02 13.9141H113.195C113.188 14.7734 112.953 15.5625 112.492 16.2812C112.031 16.9922 111.398 17.5469 110.594 17.9453C109.797 18.3359 108.914 18.5312 107.945 18.5312C106.133 18.5312 104.703 17.957 103.656 16.8086C102.609 15.6523 102.086 14.0586 102.086 12.0273V11.8047C102.086 9.85156 102.605 8.29297 103.645 7.12891C104.684 5.96484 106.109 5.38281 107.922 5.38281C109.508 5.38281 110.777 5.83594 111.73 6.74219C112.691 7.64062 113.18 8.83984 113.195 10.3398H110.02C110.004 9.68359 109.801 9.15234 109.41 8.74609C109.02 8.33203 108.504 8.125 107.863 8.125C107.074 8.125 106.477 8.41406 106.07 8.99219C105.672 9.5625 105.473 10.4922 105.473 11.7812V12.1328C105.473 13.4375 105.672 14.375 106.07 14.9453C106.469 15.5156 107.074 15.8008 107.887 15.8008Z" fill="white"/>
<path d="M118.75 9.33203H121.176C122.27 9.33203 123.23 9.51562 124.059 9.88281C124.887 10.25 125.52 10.7773 125.957 11.4648C126.402 12.1445 126.625 12.9375 126.625 13.8438C126.625 15.1797 126.129 16.2578 125.137 17.0781C124.152 17.8906 122.809 18.2969 121.105 18.2969H115.352V5.61719H118.75V9.33203ZM118.75 12.0508V15.5898H121.152C121.824 15.5898 122.34 15.4336 122.699 15.1211C123.059 14.8086 123.238 14.3828 123.238 13.8438C123.238 13.2969 123.062 12.8633 122.711 12.543C122.359 12.2148 121.84 12.0508 121.152 12.0508H118.75Z" fill="white"/>
<path d="M139.785 15.8008C140.41 15.8008 140.918 15.6289 141.309 15.2852C141.699 14.9414 141.902 14.4844 141.918 13.9141H145.094C145.086 14.7734 144.852 15.5625 144.391 16.2812C143.93 16.9922 143.297 17.5469 142.492 17.9453C141.695 18.3359 140.812 18.5312 139.844 18.5312C138.031 18.5312 136.602 17.957 135.555 16.8086C134.508 15.6523 133.984 14.0586 133.984 12.0273V11.8047C133.984 9.85156 134.504 8.29297 135.543 7.12891C136.582 5.96484 138.008 5.38281 139.82 5.38281C141.406 5.38281 142.676 5.83594 143.629 6.74219C144.59 7.64062 145.078 8.83984 145.094 10.3398H141.918C141.902 9.68359 141.699 9.15234 141.309 8.74609C140.918 8.33203 140.402 8.125 139.762 8.125C138.973 8.125 138.375 8.41406 137.969 8.99219C137.57 9.5625 137.371 10.4922 137.371 11.7812V12.1328C137.371 13.4375 137.57 14.375 137.969 14.9453C138.367 15.5156 138.973 15.8008 139.785 15.8008Z" fill="white"/>
<path d="M163.996 18.2969H160.598V13.4219H156.391V18.2969H153.004V5.61719H156.391V10.7031H160.598V5.61719H163.996V18.2969Z" fill="white"/>
<path d="M173.969 18.2969C173.812 17.9922 173.699 17.6133 173.629 17.1602C172.809 18.0742 171.742 18.5312 170.43 18.5312C169.188 18.5312 168.156 18.1719 167.336 17.4531C166.523 16.7344 166.117 15.8281 166.117 14.7344C166.117 13.3906 166.613 12.3594 167.605 11.6406C168.605 10.9219 170.047 10.5586 171.93 10.5508H173.488V9.82422C173.488 9.23828 173.336 8.76953 173.031 8.41797C172.734 8.06641 172.262 7.89062 171.613 7.89062C171.043 7.89062 170.594 8.02734 170.266 8.30078C169.945 8.57422 169.785 8.94922 169.785 9.42578H166.398C166.398 8.69141 166.625 8.01172 167.078 7.38672C167.531 6.76172 168.172 6.27344 169 5.92188C169.828 5.5625 170.758 5.38281 171.789 5.38281C173.352 5.38281 174.59 5.77734 175.504 6.56641C176.426 7.34766 176.887 8.44922 176.887 9.87109V15.3672C176.895 16.5703 177.062 17.4805 177.391 18.0977V18.2969H173.969ZM171.168 15.9414C171.668 15.9414 172.129 15.832 172.551 15.6133C172.973 15.3867 173.285 15.0859 173.488 14.7109V12.5312H172.223C170.527 12.5312 169.625 13.1172 169.516 14.2891L169.504 14.4883C169.504 14.9102 169.652 15.2578 169.949 15.5312C170.246 15.8047 170.652 15.9414 171.168 15.9414Z" fill="white"/>
<path d="M187.211 14.3008L190.527 5.61719H194.77V18.2969H191.383V10.5156L188.348 18.2969H186.074L183.098 10.6445V18.2969H179.711V5.61719H183.918L187.211 14.3008Z" fill="white"/>
<path d="M205.363 5.61719H208.75V18.2969H205.363V10.4688L201.121 18.2969H197.723V5.61719H201.121V13.4336L205.363 5.61719Z" fill="white"/>
</mask>
<g mask="url(#mask4)">
<rect x="212" y="-0.703125" width="11" height="216" transform="rotate(90 212 -0.703125)" fill="white"/>
</g>
<mask id="mask5" mask-type="alpha" maskUnits="userSpaceOnUse" x="0" y="1" width="208" height="18">
<path d="M13.9102 12.6133C13.7773 14.4492 13.0977 15.8945 11.8711 16.9492C10.6523 18.0039 9.04297 18.5312 7.04297 18.5312C4.85547 18.5312 3.13281 17.7969 1.875 16.3281C0.625 14.8516 0 12.8281 0 10.2578V9.21484C0 7.57422 0.289062 6.12891 0.867188 4.87891C1.44531 3.62891 2.26953 2.67188 3.33984 2.00781C4.41797 1.33594 5.66797 1 7.08984 1C9.05859 1 10.6445 1.52734 11.8477 2.58203C13.0508 3.63672 13.7461 5.11719 13.9336 7.02344H10.418C10.332 5.92188 10.0234 5.125 9.49219 4.63281C8.96875 4.13281 8.16797 3.88281 7.08984 3.88281C5.91797 3.88281 5.03906 4.30469 4.45312 5.14844C3.875 5.98438 3.57812 7.28516 3.5625 9.05078V10.3398C3.5625 12.1836 3.83984 13.5312 4.39453 14.3828C4.95703 15.2344 5.83984 15.6602 7.04297 15.6602C8.12891 15.6602 8.9375 15.4141 9.46875 14.9219C10.0078 14.4219 10.3164 13.6523 10.3945 12.6133H13.9102Z" fill="white"/>
<path d="M16.2188 18.2969V5.61719H21.5156C23.2422 5.61719 24.5664 5.92188 25.4883 6.53125C26.4102 7.14062 26.8711 8.01562 26.8711 9.15625C26.8711 9.74219 26.6758 10.2695 26.2852 10.7383C25.9023 11.1992 25.3398 11.5547 24.5977 11.8047C25.5039 11.9766 26.2148 12.3164 26.7305 12.8242C27.2539 13.3242 27.5156 13.9414 27.5156 14.6758C27.5156 15.8555 27.0703 16.7539 26.1797 17.3711C25.2969 17.9883 24.0117 18.2969 22.3242 18.2969H16.2188ZM19.6055 13.0352V15.5898H22.3359C23.5312 15.5898 24.1289 15.1719 24.1289 14.3359C24.1289 13.4844 23.5586 13.0508 22.418 13.0352H19.6055ZM19.6055 10.7617H21.7031C22.8906 10.7461 23.4844 10.3633 23.4844 9.61328C23.4844 9.15234 23.3203 8.82422 22.9922 8.62891C22.6719 8.43359 22.1797 8.33594 21.5156 8.33594H19.6055V10.7617Z" fill="white"/>
<path d="M40.1602 5.61719V18.2969H36.7852V13.9141H34.6406L32.2031 18.2969H28.7695L31.5352 13.3398C30.7773 12.9883 30.1914 12.5117 29.7773 11.9102C29.3711 11.3086 29.168 10.625 29.168 9.85938C29.168 8.63281 29.6406 7.62891 30.5859 6.84766C31.5391 6.05859 32.8125 5.64844 34.4062 5.61719H40.1602ZM34.4648 11.5469H36.7852V8.33594H34.582C33.9805 8.33594 33.4922 8.49609 33.1172 8.81641C32.7422 9.12891 32.5547 9.51172 32.5547 9.96484C32.5547 10.418 32.7344 10.793 33.0938 11.0898C33.4531 11.3867 33.9102 11.5391 34.4648 11.5469Z" fill="white"/>
<path d="M55.2188 13.5977H53.6836V18.2969H50.2969V13.5977H48.7852L46.2656 18.2969H42.1758L46.1719 11.6641L42.2227 5.61719H46.418L49.0547 10.3516H50.2969V5.61719H53.6836V10.3516H54.9492L57.5977 5.61719H61.793L57.8672 11.582L61.8984 18.2969H57.7383L55.2188 13.5977Z" fill="white"/>
<path d="M71.168 5.61719H74.5547V18.2969H71.168V10.4688L66.9258 18.2969H63.5273V5.61719H66.9258V13.4336L71.168 5.61719Z" fill="white"/>
<path d="M87.668 8.33594H83.6016V18.2969H80.2031V8.33594H76.207V5.61719H87.668V8.33594Z" fill="white"/>
<path d="M94.4648 18.5312C92.6055 18.5312 91.0898 17.9609 89.918 16.8203C88.7539 15.6797 88.1719 14.1602 88.1719 12.2617V11.9336C88.1719 10.6602 88.418 9.52344 88.9102 8.52344C89.4023 7.51562 90.0977 6.74219 90.9961 6.20312C91.9023 5.65625 92.9336 5.38281 94.0898 5.38281C95.8242 5.38281 97.1875 5.92969 98.1797 7.02344C99.1797 8.11719 99.6797 9.66797 99.6797 11.6758V13.0586H91.6055C91.7148 13.8867 92.043 14.5508 92.5898 15.0508C93.1445 15.5508 93.8438 15.8008 94.6875 15.8008C95.9922 15.8008 97.0117 15.3281 97.7461 14.3828L99.4102 16.2461C98.9023 16.9648 98.2148 17.5273 97.3477 17.9336C96.4805 18.332 95.5195 18.5312 94.4648 18.5312ZM94.0781 8.125C93.4062 8.125 92.8594 8.35156 92.4375 8.80469C92.0234 9.25781 91.7578 9.90625 91.6406 10.75H96.3516V10.4805C96.3359 9.73047 96.1328 9.15234 95.7422 8.74609C95.3516 8.33203 94.7969 8.125 94.0781 8.125Z" fill="white"/>
<path d="M106.887 15.8008C107.512 15.8008 108.02 15.6289 108.41 15.2852C108.801 14.9414 109.004 14.4844 109.02 13.9141H112.195C112.188 14.7734 111.953 15.5625 111.492 16.2812C111.031 16.9922 110.398 17.5469 109.594 17.9453C108.797 18.3359 107.914 18.5312 106.945 18.5312C105.133 18.5312 103.703 17.957 102.656 16.8086C101.609 15.6523 101.086 14.0586 101.086 12.0273V11.8047C101.086 9.85156 101.605 8.29297 102.645 7.12891C103.684 5.96484 105.109 5.38281 106.922 5.38281C108.508 5.38281 109.777 5.83594 110.73 6.74219C111.691 7.64062 112.18 8.83984 112.195 10.3398H109.02C109.004 9.68359 108.801 9.15234 108.41 8.74609C108.02 8.33203 107.504 8.125 106.863 8.125C106.074 8.125 105.477 8.41406 105.07 8.99219C104.672 9.5625 104.473 10.4922 104.473 11.7812V12.1328C104.473 13.4375 104.672 14.375 105.07 14.9453C105.469 15.5156 106.074 15.8008 106.887 15.8008Z" fill="white"/>
<path d="M117.75 9.33203H120.176C121.27 9.33203 122.23 9.51562 123.059 9.88281C123.887 10.25 124.52 10.7773 124.957 11.4648C125.402 12.1445 125.625 12.9375 125.625 13.8438C125.625 15.1797 125.129 16.2578 124.137 17.0781C123.152 17.8906 121.809 18.2969 120.105 18.2969H114.352V5.61719H117.75V9.33203ZM117.75 12.0508V15.5898H120.152C120.824 15.5898 121.34 15.4336 121.699 15.1211C122.059 14.8086 122.238 14.3828 122.238 13.8438C122.238 13.2969 122.062 12.8633 121.711 12.543C121.359 12.2148 120.84 12.0508 120.152 12.0508H117.75Z" fill="white"/>
<path d="M138.785 15.8008C139.41 15.8008 139.918 15.6289 140.309 15.2852C140.699 14.9414 140.902 14.4844 140.918 13.9141H144.094C144.086 14.7734 143.852 15.5625 143.391 16.2812C142.93 16.9922 142.297 17.5469 141.492 17.9453C140.695 18.3359 139.812 18.5312 138.844 18.5312C137.031 18.5312 135.602 17.957 134.555 16.8086C133.508 15.6523 132.984 14.0586 132.984 12.0273V11.8047C132.984 9.85156 133.504 8.29297 134.543 7.12891C135.582 5.96484 137.008 5.38281 138.82 5.38281C140.406 5.38281 141.676 5.83594 142.629 6.74219C143.59 7.64062 144.078 8.83984 144.094 10.3398H140.918C140.902 9.68359 140.699 9.15234 140.309 8.74609C139.918 8.33203 139.402 8.125 138.762 8.125C137.973 8.125 137.375 8.41406 136.969 8.99219C136.57 9.5625 136.371 10.4922 136.371 11.7812V12.1328C136.371 13.4375 136.57 14.375 136.969 14.9453C137.367 15.5156 137.973 15.8008 138.785 15.8008Z" fill="white"/>
<path d="M162.996 18.2969H159.598V13.4219H155.391V18.2969H152.004V5.61719H155.391V10.7031H159.598V5.61719H162.996V18.2969Z" fill="white"/>
<path d="M172.969 18.2969C172.812 17.9922 172.699 17.6133 172.629 17.1602C171.809 18.0742 170.742 18.5312 169.43 18.5312C168.188 18.5312 167.156 18.1719 166.336 17.4531C165.523 16.7344 165.117 15.8281 165.117 14.7344C165.117 13.3906 165.613 12.3594 166.605 11.6406C167.605 10.9219 169.047 10.5586 170.93 10.5508H172.488V9.82422C172.488 9.23828 172.336 8.76953 172.031 8.41797C171.734 8.06641 171.262 7.89062 170.613 7.89062C170.043 7.89062 169.594 8.02734 169.266 8.30078C168.945 8.57422 168.785 8.94922 168.785 9.42578H165.398C165.398 8.69141 165.625 8.01172 166.078 7.38672C166.531 6.76172 167.172 6.27344 168 5.92188C168.828 5.5625 169.758 5.38281 170.789 5.38281C172.352 5.38281 173.59 5.77734 174.504 6.56641C175.426 7.34766 175.887 8.44922 175.887 9.87109V15.3672C175.895 16.5703 176.062 17.4805 176.391 18.0977V18.2969H172.969ZM170.168 15.9414C170.668 15.9414 171.129 15.832 171.551 15.6133C171.973 15.3867 172.285 15.0859 172.488 14.7109V12.5312H171.223C169.527 12.5312 168.625 13.1172 168.516 14.2891L168.504 14.4883C168.504 14.9102 168.652 15.2578 168.949 15.5312C169.246 15.8047 169.652 15.9414 170.168 15.9414Z" fill="white"/>
<path d="M186.211 14.3008L189.527 5.61719H193.77V18.2969H190.383V10.5156L187.348 18.2969H185.074L182.098 10.6445V18.2969H178.711V5.61719H182.918L186.211 14.3008Z" fill="white"/>
<path d="M204.363 5.61719H207.75V18.2969H204.363V10.4688L200.121 18.2969H196.723V5.61719H200.121V13.4336L204.363 5.61719Z" fill="white"/>
</mask>
<g mask="url(#mask5)">
<rect x="213" y="10.2969" width="12" height="218" transform="rotate(90 213 10.2969)" fill="white"/>
</g>
</svg>
