<svg width="283" height="61" viewBox="0 0 283 61" fill="none" xmlns="http://www.w3.org/2000/svg">
<g style="mix-blend-mode:hue">
<mask id="mask0" mask-type="alpha" maskUnits="userSpaceOnUse" x="17" y="4" width="257" height="50">
<path d="M58.2024 29.6654C58.2024 34.3525 57.3731 38.4619 55.7144 41.9936C54.0558 45.5253 51.6769 48.2504 48.5779 50.1688C45.5007 52.0873 41.9652 53.0465 37.9714 53.0465C34.0212 53.0465 30.4966 52.0982 27.3975 50.2015C24.2985 48.3049 21.8978 45.6016 20.1955 42.0917C18.4933 38.56 17.6312 34.5051 17.6094 29.927V27.5725C17.6094 22.8854 18.4496 18.7651 20.1301 15.2116C21.8324 11.6363 24.2221 8.90031 27.2993 7.00365C30.3984 5.0852 33.9339 4.12598 37.9059 4.12598C41.8779 4.12598 45.4025 5.0852 48.4797 7.00365C51.5787 8.90031 53.9685 11.6363 55.649 15.2116C57.3512 18.7651 58.2024 22.8745 58.2024 27.5398V29.6654ZM48.2505 27.5071C48.2505 22.5148 47.3558 18.7215 45.5662 16.1272C43.7766 13.5329 41.2232 12.2358 37.9059 12.2358C34.6104 12.2358 32.0679 13.522 30.2783 16.0945C28.4887 18.6452 27.583 22.3949 27.5612 27.3436V29.6654C27.5612 34.5269 28.456 38.2984 30.2456 40.9799C32.0352 43.6613 34.6104 45.0021 37.9714 45.0021C41.2668 45.0021 43.7984 43.7158 45.5662 41.1434C47.3339 38.5491 48.2287 34.7776 48.2505 29.8289V27.5071Z" fill="#F2ECF2"/>
<path d="M94.1141 24.5967H82.7546V52.3925H73.2611V24.5967H62.098V17.0101H94.1141V24.5967Z" fill="#F2ECF2"/>
<path d="M117.488 27.4417C117.488 26.1991 117.073 25.2398 116.244 24.564C115.436 23.8664 114.28 23.5176 112.774 23.5176C111.224 23.5176 109.958 23.8446 108.976 24.4986C108.016 25.1308 107.536 26.0356 107.536 27.2128H98.0752C98.0752 24.0081 99.4065 21.4029 102.069 19.3973C104.732 17.3916 108.136 16.3888 112.283 16.3888C116.844 16.3888 120.423 17.2826 123.02 19.0703C125.639 20.8579 126.949 23.3977 126.949 26.6896C126.949 28.2592 126.468 29.709 125.508 31.0388C124.57 32.3468 123.238 33.3933 121.514 34.1781C125.552 35.5951 127.571 38.3311 127.571 42.386C127.571 45.6343 126.174 48.2286 123.38 50.1688C120.609 52.0873 116.909 53.0465 112.283 53.0465C107.983 53.0465 104.448 52.0437 101.676 50.038C98.9045 48.0324 97.5187 45.3291 97.5187 41.9282H106.979C106.979 43.1272 107.514 44.0974 108.584 44.8386C109.653 45.5798 111.05 45.9504 112.774 45.9504C114.454 45.9504 115.764 45.558 116.702 44.7732C117.641 43.9884 118.11 42.9637 118.11 41.6993C118.11 40.1515 117.662 39.0505 116.768 38.3965C115.873 37.7207 114.531 37.3828 112.741 37.3828H107.601V31.235H113.068C116.015 31.1478 117.488 29.8834 117.488 27.4417Z" fill="#F2ECF2"/>
<path d="M143.448 27.3763H150.224C153.28 27.3763 155.964 27.8886 158.277 28.9132C160.591 29.9379 162.358 31.4094 163.581 33.3279C164.825 35.2245 165.447 37.4373 165.447 39.9661C165.447 43.694 164.061 46.7025 161.289 48.9916C158.539 51.2589 154.785 52.3925 150.028 52.3925H133.954V17.0101H143.448V27.3763ZM180.505 52.3925H171.044V17.0101H180.505V52.3925ZM143.448 34.9629V44.8386H150.159C152.036 44.8386 153.476 44.4026 154.48 43.5305C155.484 42.6585 155.986 41.4704 155.986 39.9661C155.986 38.4401 155.495 37.2302 154.513 36.3363C153.53 35.4207 152.079 34.9629 150.159 34.9629H143.448Z" fill="#F2ECF2"/>
<path d="M189.475 52.3925V17.0101H204.272C209.095 17.0101 212.794 17.8603 215.369 19.5608C217.945 21.2612 219.232 23.7029 219.232 26.8858C219.232 28.5208 218.687 29.9924 217.595 31.3004C216.526 32.5866 214.955 33.5786 212.881 34.2762C215.413 34.7558 217.399 35.7041 218.839 37.1212C220.302 38.5164 221.033 40.2387 221.033 42.2879C221.033 45.5798 219.789 48.0869 217.301 49.8091C214.835 51.5314 211.245 52.3925 206.531 52.3925H189.475ZM198.936 37.7098V44.8386H206.563C209.902 44.8386 211.572 43.6722 211.572 41.3396C211.572 38.9633 209.979 37.7534 206.792 37.7098H198.936ZM198.936 31.3658H204.796C208.113 31.3222 209.771 30.254 209.771 28.1611C209.771 26.8749 209.313 25.9593 208.397 25.4143C207.502 24.8692 206.127 24.5967 204.272 24.5967H198.936V31.3658Z" fill="#F2ECF2"/>
<path d="M236.943 27.3763H243.719C246.774 27.3763 249.459 27.8886 251.772 28.9132C254.085 29.9379 255.853 31.4094 257.075 33.3279C258.319 35.2245 258.941 37.4373 258.941 39.9661C258.941 43.694 257.556 46.7025 254.784 48.9916C252.034 51.2589 248.28 52.3925 243.523 52.3925H227.449V17.0101H236.943V27.3763ZM274 52.3925H264.539V17.0101H274V52.3925ZM236.943 34.9629V44.8386H243.654C245.53 44.8386 246.971 44.4026 247.975 43.5305C248.979 42.6585 249.481 41.4704 249.481 39.9661C249.481 38.4401 248.99 37.2302 248.007 36.3363C247.025 35.4207 245.574 34.9629 243.654 34.9629H236.943Z" fill="#F2ECF2"/>
</mask>
<g mask="url(#mask0)">
<rect x="516.246" y="29.0234" width="38.5568" height="520.444" transform="rotate(90 516.246 29.0234)" fill="#00F0FF"/>
</g>
</g>
<g style="mix-blend-mode:hue">
<mask id="mask1" mask-type="alpha" maskUnits="userSpaceOnUse" x="7" y="4" width="257" height="50">
<path d="M47.593 29.6654C47.593 34.3525 46.7637 38.4619 45.1051 41.9936C43.4464 45.5253 41.0676 48.2504 37.9685 50.1688C34.8913 52.0873 31.3558 53.0465 27.362 53.0465C23.4118 53.0465 19.8872 52.0982 16.7882 50.2015C13.6891 48.3049 11.2885 45.6016 9.58617 42.0917C7.88388 38.56 7.02182 34.5051 7 29.927V27.5725C7 22.8854 7.84023 18.7651 9.52069 15.2116C11.223 11.6363 13.6127 8.90031 16.6899 7.00365C19.789 5.0852 23.3245 4.12598 27.2965 4.12598C31.2685 4.12598 34.7931 5.0852 37.8703 7.00365C40.9694 8.90031 43.3591 11.6363 45.0396 15.2116C46.7419 18.7651 47.593 22.8745 47.593 27.5398V29.6654ZM37.6412 27.5071C37.6412 22.5148 36.7464 18.7215 34.9568 16.1272C33.1672 13.5329 30.6138 12.2358 27.2965 12.2358C24.0011 12.2358 21.4585 13.522 19.6689 16.0945C17.8794 18.6452 16.9737 22.3949 16.9518 27.3436V29.6654C16.9518 34.5269 17.8466 38.2984 19.6362 40.9799C21.4258 43.6613 24.0011 45.0021 27.362 45.0021C30.6574 45.0021 33.189 43.7158 34.9568 41.1434C36.7246 38.5491 37.6194 34.7776 37.6412 29.8289V27.5071Z" fill="#F2ECF2"/>
<path d="M83.5047 24.5967H72.1452V52.3925H62.6517V24.5967H51.4886V17.0101H83.5047V24.5967Z" fill="#F2ECF2"/>
<path d="M106.878 27.4417C106.878 26.1991 106.464 25.2398 105.634 24.564C104.827 23.8664 103.67 23.5176 102.164 23.5176C100.615 23.5176 99.3491 23.8446 98.367 24.4986C97.4067 25.1308 96.9266 26.0356 96.9266 27.2128H87.4658C87.4658 24.0081 88.7971 21.4029 91.4596 19.3973C94.1222 17.3916 97.5268 16.3888 101.673 16.3888C106.235 16.3888 109.814 17.2826 112.411 19.0703C115.03 20.8579 116.339 23.3977 116.339 26.6896C116.339 28.2592 115.859 29.709 114.899 31.0388C113.96 32.3468 112.629 33.3933 110.905 34.1781C114.942 35.5951 116.961 38.3311 116.961 42.386C116.961 45.6343 115.564 48.2286 112.771 50.1688C109.999 52.0873 106.3 53.0465 101.673 53.0465C97.374 53.0465 93.8385 52.0437 91.0668 50.038C88.2951 48.0324 86.9093 45.3291 86.9093 41.9282H96.3701C96.3701 43.1272 96.9048 44.0974 97.9742 44.8386C99.0436 45.5798 100.44 45.9504 102.164 45.9504C103.845 45.9504 105.154 45.558 106.093 44.7732C107.031 43.9884 107.5 42.9637 107.5 41.6993C107.5 40.1515 107.053 39.0505 106.158 38.3965C105.263 37.7207 103.921 37.3828 102.132 37.3828H96.9921V31.235H102.459C105.405 31.1478 106.878 29.8834 106.878 27.4417Z" fill="#F2ECF2"/>
<path d="M132.838 27.3763H139.615C142.67 27.3763 145.355 27.8886 147.668 28.9132C149.981 29.9379 151.749 31.4094 152.971 33.3279C154.215 35.2245 154.837 37.4373 154.837 39.9661C154.837 43.694 153.451 46.7025 150.68 48.9916C147.93 51.2589 144.176 52.3925 139.418 52.3925H123.345V17.0101H132.838V27.3763ZM169.896 52.3925H160.435V17.0101H169.896V52.3925ZM132.838 34.9629V44.8386H139.549C141.426 44.8386 142.867 44.4026 143.87 43.5305C144.874 42.6585 145.376 41.4704 145.376 39.9661C145.376 38.4401 144.885 37.2302 143.903 36.3363C142.921 35.4207 141.47 34.9629 139.549 34.9629H132.838Z" fill="#F2ECF2"/>
<path d="M178.866 52.3925V17.0101H193.662C198.486 17.0101 202.185 17.8603 204.76 19.5608C207.335 21.2612 208.623 23.7029 208.623 26.8858C208.623 28.5208 208.077 29.9924 206.986 31.3004C205.917 32.5866 204.345 33.5786 202.272 34.2762C204.804 34.7558 206.79 35.7041 208.23 37.1212C209.692 38.5164 210.423 40.2387 210.423 42.2879C210.423 45.5798 209.179 48.0869 206.691 49.8091C204.225 51.5314 200.635 52.3925 195.921 52.3925H178.866ZM188.326 37.7098V44.8386H195.954C199.293 44.8386 200.963 43.6722 200.963 41.3396C200.963 38.9633 199.369 37.7534 196.183 37.7098H188.326ZM188.326 31.3658H194.186C197.503 31.3222 199.162 30.254 199.162 28.1611C199.162 26.8749 198.704 25.9593 197.787 25.4143C196.892 24.8692 195.517 24.5967 193.662 24.5967H188.326V31.3658Z" fill="#F2ECF2"/>
<path d="M226.333 27.3763H233.11C236.165 27.3763 238.849 27.8886 241.163 28.9132C243.476 29.9379 245.244 31.4094 246.466 33.3279C247.71 35.2245 248.332 37.4373 248.332 39.9661C248.332 43.694 246.946 46.7025 244.174 48.9916C241.425 51.2589 237.671 52.3925 232.913 52.3925H216.84V17.0101H226.333V27.3763ZM263.391 52.3925H253.93V17.0101H263.391V52.3925ZM226.333 34.9629V44.8386H233.044C234.921 44.8386 236.361 44.4026 237.365 43.5305C238.369 42.6585 238.871 41.4704 238.871 39.9661C238.871 38.4401 238.38 37.2302 237.398 36.3363C236.416 35.4207 234.965 34.9629 233.044 34.9629H226.333Z" fill="#F2ECF2"/>
</mask>
<g mask="url(#mask1)">
<rect x="492.668" y="-24.9561" width="40.8702" height="496.867" transform="rotate(90 492.668 -24.9561)" fill="#00F0FF"/>
</g>
</g>
<g style="mix-blend-mode:difference">
<mask id="mask2" mask-type="alpha" maskUnits="userSpaceOnUse" x="17" y="0" width="257" height="49">
<path d="M58.2024 25.5394C58.2024 30.2265 57.3731 34.3359 55.7144 37.8676C54.0558 41.3993 51.6769 44.1244 48.5779 46.0428C45.5007 47.9613 41.9652 48.9205 37.9714 48.9205C34.0212 48.9205 30.4966 47.9722 27.3975 46.0755C24.2985 44.1789 21.8978 41.4756 20.1955 37.9657C18.4933 34.434 17.6312 30.3791 17.6094 25.801V23.4465C17.6094 18.7594 18.4496 14.6391 20.1301 11.0856C21.8324 7.5103 24.2221 4.77433 27.2993 2.87768C30.3984 0.959226 33.9339 0 37.9059 0C41.8779 0 45.4025 0.959226 48.4797 2.87768C51.5787 4.77433 53.9685 7.5103 55.649 11.0856C57.3512 14.6391 58.2024 18.7485 58.2024 23.4138V25.5394ZM48.2505 23.3811C48.2505 18.3888 47.3558 14.5955 45.5662 12.0012C43.7766 9.40695 41.2232 8.10982 37.9059 8.10982C34.6104 8.10982 32.0679 9.39605 30.2783 11.9685C28.4887 14.5192 27.583 18.2689 27.5612 23.2176V25.5394C27.5612 30.4009 28.456 34.1724 30.2456 36.8539C32.0352 39.5354 34.6104 40.8761 37.9714 40.8761C41.2668 40.8761 43.7984 39.5899 45.5662 37.0174C47.3339 34.4231 48.2287 30.6516 48.2505 25.7029V23.3811Z" fill="#F2ECF2"/>
<path d="M94.1141 20.4708H82.7546V48.2665H73.2611V20.4708H62.098V12.8841H94.1141V20.4708Z" fill="#F2ECF2"/>
<path d="M117.488 23.3157C117.488 22.0731 117.073 21.1139 116.244 20.4381C115.436 19.7404 114.28 19.3916 112.774 19.3916C111.224 19.3916 109.958 19.7186 108.976 20.3727C108.016 21.0049 107.536 21.9096 107.536 23.0868H98.0752C98.0752 19.8821 99.4065 17.277 102.069 15.2713C104.732 13.2657 108.136 12.2628 112.283 12.2628C116.844 12.2628 120.423 13.1567 123.02 14.9443C125.639 16.732 126.949 19.2717 126.949 22.5636C126.949 24.1333 126.468 25.583 125.508 26.9128C124.57 28.2209 123.238 29.2673 121.514 30.0521C125.552 31.4692 127.571 34.2051 127.571 38.26C127.571 41.5083 126.174 44.1026 123.38 46.0428C120.609 47.9613 116.909 48.9205 112.283 48.9205C107.983 48.9205 104.448 47.9177 101.676 45.912C98.9045 43.9064 97.5187 41.2031 97.5187 37.8022H106.979C106.979 39.0013 107.514 39.9714 108.584 40.7126C109.653 41.4538 111.05 41.8244 112.774 41.8244C114.454 41.8244 115.764 41.432 116.702 40.6472C117.641 39.8624 118.11 38.8377 118.11 37.5733C118.11 36.0255 117.662 34.9245 116.768 34.2705C115.873 33.5947 114.531 33.2568 112.741 33.2568H107.601V27.109H113.068C116.015 27.0218 117.488 25.7574 117.488 23.3157Z" fill="#F2ECF2"/>
<path d="M143.448 23.2503H150.224C153.28 23.2503 155.964 23.7626 158.277 24.7873C160.591 25.8119 162.358 27.2834 163.581 29.2019C164.825 31.0985 165.447 33.3113 165.447 35.8402C165.447 39.5681 164.061 42.5766 161.289 44.8656C158.539 47.1329 154.785 48.2665 150.028 48.2665H133.954V12.8841H143.448V23.2503ZM180.505 48.2665H171.044V12.8841H180.505V48.2665ZM143.448 30.8369V40.7126H150.159C152.036 40.7126 153.476 40.2766 154.48 39.4046C155.484 38.5325 155.986 37.3444 155.986 35.8402C155.986 34.3141 155.495 33.1042 154.513 32.2104C153.53 31.2947 152.079 30.8369 150.159 30.8369H143.448Z" fill="#F2ECF2"/>
<path d="M189.475 48.2665V12.8841H204.272C209.095 12.8841 212.794 13.7344 215.369 15.4348C217.945 17.1353 219.232 19.5769 219.232 22.7598C219.232 24.3949 218.687 25.8664 217.595 27.1744C216.526 28.4607 214.955 29.4526 212.881 30.1502C215.413 30.6298 217.399 31.5782 218.839 32.9952C220.302 34.3904 221.033 36.1127 221.033 38.1619C221.033 41.4538 219.789 43.9609 217.301 45.6831C214.835 47.4054 211.245 48.2665 206.531 48.2665H189.475ZM198.936 33.5838V40.7126H206.563C209.902 40.7126 211.572 39.5463 211.572 37.2136C211.572 34.8373 209.979 33.6274 206.792 33.5838H198.936ZM198.936 27.2398H204.796C208.113 27.1962 209.771 26.128 209.771 24.0352C209.771 22.7489 209.313 21.8333 208.397 21.2883C207.502 20.7433 206.127 20.4708 204.272 20.4708H198.936V27.2398Z" fill="#F2ECF2"/>
<path d="M236.943 23.2503H243.719C246.774 23.2503 249.459 23.7626 251.772 24.7873C254.085 25.8119 255.853 27.2834 257.075 29.2019C258.319 31.0985 258.941 33.3113 258.941 35.8402C258.941 39.5681 257.556 42.5766 254.784 44.8656C252.034 47.1329 248.28 48.2665 243.523 48.2665H227.449V12.8841H236.943V23.2503ZM274 48.2665H264.539V12.8841H274V48.2665ZM236.943 30.8369V40.7126H243.654C245.53 40.7126 246.971 40.2766 247.975 39.4046C248.979 38.5325 249.481 37.3444 249.481 35.8402C249.481 34.3141 248.99 33.1042 248.007 32.2104C247.025 31.2947 245.574 30.8369 243.654 30.8369H236.943Z" fill="#F2ECF2"/>
</mask>
<g mask="url(#mask2)">
<rect x="519.781" y="-2.94727" width="29.4702" height="520.444" transform="rotate(90 519.781 -2.94727)" fill="#D41F7C"/>
</g>
</g>
<g style="mix-blend-mode:difference">
<mask id="mask3" mask-type="alpha" maskUnits="userSpaceOnUse" x="15" y="0" width="257" height="49">
<path d="M55.843 25.5394C55.843 30.2265 55.0137 34.3359 53.3551 37.8676C51.6964 41.3993 49.3176 44.1244 46.2185 46.0428C43.1413 47.9613 39.6058 48.9205 35.612 48.9205C31.6618 48.9205 28.1372 47.9722 25.0382 46.0755C21.9391 44.1789 19.5385 41.4756 17.8362 37.9657C16.1339 34.434 15.2718 30.3791 15.25 25.801V23.4465C15.25 18.7594 16.0902 14.6391 17.7707 11.0856C19.473 7.5103 21.8627 4.77433 24.9399 2.87768C28.039 0.959226 31.5745 0 35.5465 0C39.5185 0 43.0431 0.959226 46.1203 2.87768C49.2194 4.77433 51.6091 7.5103 53.2896 11.0856C54.9919 14.6391 55.843 18.7485 55.843 23.4138V25.5394ZM45.8912 23.3811C45.8912 18.3888 44.9964 14.5955 43.2068 12.0012C41.4172 9.40695 38.8638 8.10982 35.5465 8.10982C32.2511 8.10982 29.7085 9.39605 27.9189 11.9685C26.1294 14.5192 25.2237 18.2689 25.2018 23.2176V25.5394C25.2018 30.4009 26.0966 34.1724 27.8862 36.8539C29.6758 39.5354 32.2511 40.8761 35.612 40.8761C38.9074 40.8761 41.439 39.5899 43.2068 37.0174C44.9746 34.4231 45.8694 30.6516 45.8912 25.7029V23.3811Z" fill="#F2ECF2"/>
<path d="M91.7547 20.4708H80.3952V48.2665H70.9017V20.4708H59.7386V12.8841H91.7547V20.4708Z" fill="#F2ECF2"/>
<path d="M115.128 23.3157C115.128 22.0731 114.714 21.1139 113.884 20.4381C113.077 19.7404 111.92 19.3916 110.414 19.3916C108.865 19.3916 107.599 19.7186 106.617 20.3727C105.657 21.0049 105.177 21.9096 105.177 23.0868H95.7158C95.7158 19.8821 97.0471 17.277 99.7096 15.2713C102.372 13.2657 105.777 12.2628 109.923 12.2628C114.485 12.2628 118.064 13.1567 120.661 14.9443C123.28 16.732 124.589 19.2717 124.589 22.5636C124.589 24.1333 124.109 25.583 123.149 26.9128C122.21 28.2209 120.879 29.2673 119.155 30.0521C123.192 31.4692 125.211 34.2051 125.211 38.26C125.211 41.5083 123.814 44.1026 121.021 46.0428C118.249 47.9613 114.55 48.9205 109.923 48.9205C105.624 48.9205 102.088 47.9177 99.3168 45.912C96.5451 43.9064 95.1593 41.2031 95.1593 37.8022H104.62C104.62 39.0013 105.155 39.9714 106.224 40.7126C107.294 41.4538 108.69 41.8244 110.414 41.8244C112.095 41.8244 113.404 41.432 114.343 40.6472C115.281 39.8624 115.75 38.8377 115.75 37.5733C115.75 36.0255 115.303 34.9245 114.408 34.2705C113.513 33.5947 112.171 33.2568 110.382 33.2568H105.242V27.109H110.709C113.655 27.0218 115.128 25.7574 115.128 23.3157Z" fill="#F2ECF2"/>
<path d="M141.088 23.2503H147.865C150.92 23.2503 153.605 23.7626 155.918 24.7873C158.231 25.8119 159.999 27.2834 161.221 29.2019C162.465 31.0985 163.087 33.3113 163.087 35.8402C163.087 39.5681 161.701 42.5766 158.93 44.8656C156.18 47.1329 152.426 48.2665 147.668 48.2665H131.595V12.8841H141.088V23.2503ZM178.146 48.2665H168.685V12.8841H178.146V48.2665ZM141.088 30.8369V40.7126H147.799C149.676 40.7126 151.117 40.2766 152.12 39.4046C153.124 38.5325 153.626 37.3444 153.626 35.8402C153.626 34.3141 153.135 33.1042 152.153 32.2104C151.171 31.2947 149.72 30.8369 147.799 30.8369H141.088Z" fill="#F2ECF2"/>
<path d="M187.116 48.2665V12.8841H201.912C206.736 12.8841 210.435 13.7344 213.01 15.4348C215.585 17.1353 216.873 19.5769 216.873 22.7598C216.873 24.3949 216.327 25.8664 215.236 27.1744C214.167 28.4607 212.595 29.4526 210.522 30.1502C213.054 30.6298 215.04 31.5782 216.48 32.9952C217.942 34.3904 218.673 36.1127 218.673 38.1619C218.673 41.4538 217.429 43.9609 214.941 45.6831C212.475 47.4054 208.885 48.2665 204.171 48.2665H187.116ZM196.576 33.5838V40.7126H204.204C207.543 40.7126 209.213 39.5463 209.213 37.2136C209.213 34.8373 207.619 33.6274 204.433 33.5838H196.576ZM196.576 27.2398H202.436C205.753 27.1962 207.412 26.128 207.412 24.0352C207.412 22.7489 206.954 21.8333 206.037 21.2883C205.142 20.7433 203.767 20.4708 201.912 20.4708H196.576V27.2398Z" fill="#F2ECF2"/>
<path d="M234.583 23.2503H241.36C244.415 23.2503 247.099 23.7626 249.413 24.7873C251.726 25.8119 253.494 27.2834 254.716 29.2019C255.96 31.0985 256.582 33.3113 256.582 35.8402C256.582 39.5681 255.196 42.5766 252.424 44.8656C249.675 47.1329 245.921 48.2665 241.163 48.2665H225.09V12.8841H234.583V23.2503ZM271.641 48.2665H262.18V12.8841H271.641V48.2665ZM234.583 30.8369V40.7126H241.294C243.171 40.7126 244.611 40.2766 245.615 39.4046C246.619 38.5325 247.121 37.3444 247.121 35.8402C247.121 34.3141 246.63 33.1042 245.648 32.2104C244.666 31.2947 243.215 30.8369 241.294 30.8369H234.583Z" fill="#F2ECF2"/>
</mask>
<g mask="url(#mask3)">
<rect x="496.203" y="26.5234" width="31.2384" height="496.867" transform="rotate(90 496.203 26.5234)" fill="#D41F7C"/>
</g>
</g>
<mask id="mask4" mask-type="alpha" maskUnits="userSpaceOnUse" x="14" y="2" width="257" height="50">
<path d="M54.6672 28.4867C54.6672 33.1738 53.8379 37.2832 52.1793 40.8149C50.5206 44.3466 48.1418 47.0717 45.0428 48.9901C41.9655 50.9086 38.43 51.8678 34.4362 51.8678C30.486 51.8678 26.9614 50.9195 23.8624 49.0228C20.7633 47.1262 18.3627 44.4229 16.6604 40.913C14.9581 37.3813 14.096 33.3264 14.0742 28.7483V26.3938C14.0742 21.7067 14.9145 17.5864 16.5949 14.0329C18.2972 10.4576 20.687 7.72159 23.7642 5.82494C26.8632 3.90649 30.3987 2.94727 34.3707 2.94727C38.3427 2.94727 41.8673 3.90649 44.9445 5.82494C48.0436 7.72159 50.4333 10.4576 52.1138 14.0329C53.8161 17.5864 54.6672 21.6958 54.6672 26.3611V28.4867ZM44.7154 26.3284C44.7154 21.3361 43.8206 17.5428 42.031 14.9485C40.2414 12.3542 37.688 11.0571 34.3707 11.0571C31.0753 11.0571 28.5328 12.3433 26.7432 14.9158C24.9536 17.4665 24.0479 21.2162 24.0261 26.1649V28.4867C24.0261 33.3482 24.9208 37.1197 26.7104 39.8012C28.5 42.4826 31.0753 43.8234 34.4362 43.8234C37.7316 43.8234 40.2633 42.5371 42.031 39.9647C43.7988 37.3704 44.6936 33.5989 44.7154 28.6502V26.3284Z" fill="#F2ECF2"/>
<path d="M90.5789 23.418H79.2195V51.2138H69.7259V23.418H58.5628V15.8314H90.5789V23.418Z" fill="#F2ECF2"/>
<path d="M113.953 26.263C113.953 25.0204 113.538 24.0611 112.709 23.3853C111.901 22.6877 110.745 22.3389 109.239 22.3389C107.689 22.3389 106.423 22.6659 105.441 23.3199C104.481 23.9521 104.001 24.8569 104.001 26.0341H94.54C94.54 22.8294 95.8713 20.2242 98.5339 18.2186C101.196 16.2129 104.601 15.2101 108.748 15.2101C113.309 15.2101 116.888 16.1039 119.485 17.8916C122.104 19.6792 123.413 22.219 123.413 25.5109C123.413 27.0805 122.933 28.5303 121.973 29.8601C121.035 31.1681 119.703 32.2146 117.979 32.9994C122.017 34.4164 124.035 37.1524 124.035 41.2073C124.035 44.4556 122.639 47.0499 119.845 48.9901C117.074 50.9086 113.374 51.8678 108.748 51.8678C104.448 51.8678 100.913 50.865 98.141 48.8593C95.3694 46.8537 93.9835 44.1504 93.9835 40.7495H103.444C103.444 41.9485 103.979 42.9186 105.048 43.6599C106.118 44.4011 107.515 44.7717 109.239 44.7717C110.919 44.7717 112.229 44.3793 113.167 43.5945C114.105 42.8096 114.575 41.785 114.575 40.5206C114.575 38.9727 114.127 37.8718 113.232 37.2178C112.338 36.542 110.995 36.2041 109.206 36.2041H104.066V30.0563H109.533C112.48 29.9691 113.953 28.7047 113.953 26.263Z" fill="#F2ECF2"/>
<path d="M139.913 26.1976H146.689C149.744 26.1976 152.429 26.7099 154.742 27.7345C157.055 28.7592 158.823 30.2307 160.045 32.1492C161.289 34.0458 161.911 36.2586 161.911 38.7874C161.911 42.5153 160.525 45.5238 157.754 47.8129C155.004 50.0801 151.25 51.2138 146.493 51.2138H130.419V15.8314H139.913V26.1976ZM176.97 51.2138H167.509V15.8314H176.97V51.2138ZM139.913 33.7842V43.6599H146.623C148.5 43.6599 149.941 43.2239 150.945 42.3518C151.949 41.4798 152.451 40.2917 152.451 38.7874C152.451 37.2614 151.96 36.0515 150.977 35.1576C149.995 34.242 148.544 33.7842 146.623 33.7842H139.913Z" fill="#F2ECF2"/>
<path d="M185.94 51.2138V15.8314H200.737C205.56 15.8314 209.259 16.6816 211.834 18.3821C214.409 20.0825 215.697 22.5242 215.697 25.7071C215.697 27.3421 215.151 28.8137 214.06 30.1217C212.991 31.4079 211.42 32.3999 209.346 33.0975C211.878 33.5771 213.864 34.5254 215.304 35.9425C216.766 37.3377 217.498 39.0599 217.498 41.1092C217.498 44.4011 216.254 46.9082 213.766 48.6304C211.299 50.3526 207.709 51.2138 202.995 51.2138H185.94ZM195.401 36.5311V43.6599H203.028C206.367 43.6599 208.037 42.4935 208.037 40.1609C208.037 37.7846 206.444 36.5747 203.257 36.5311H195.401ZM195.401 30.1871H201.26C204.578 30.1435 206.236 29.0753 206.236 26.9824C206.236 25.6962 205.778 24.7806 204.861 24.2355C203.967 23.6905 202.592 23.418 200.737 23.418H195.401V30.1871Z" fill="#F2ECF2"/>
<path d="M233.407 26.1976H240.184C243.239 26.1976 245.924 26.7099 248.237 27.7345C250.55 28.7592 252.318 30.2307 253.54 32.1492C254.784 34.0458 255.406 36.2586 255.406 38.7874C255.406 42.5153 254.02 45.5238 251.249 47.8129C248.499 50.0801 244.745 51.2138 239.987 51.2138H223.914V15.8314H233.407V26.1976ZM270.465 51.2138H261.004V15.8314H270.465V51.2138ZM233.407 33.7842V43.6599H240.118C241.995 43.6599 243.436 43.2239 244.44 42.3518C245.443 41.4798 245.945 40.2917 245.945 38.7874C245.945 37.2614 245.454 36.0515 244.472 35.1576C243.49 34.242 242.039 33.7842 240.118 33.7842H233.407Z" fill="#F2ECF2"/>
</mask>
<g mask="url(#mask4)">
<rect x="518.016" width="29.4702" height="520.444" transform="rotate(90 518.016 0)" fill="white"/>
</g>
<mask id="mask5" mask-type="alpha" maskUnits="userSpaceOnUse" x="12" y="2" width="257" height="50">
<path d="M52.8977 28.4867C52.8977 33.1738 52.0684 37.2832 50.4097 40.8149C48.7511 44.3466 46.3723 47.0717 43.2732 48.9901C40.196 50.9086 36.6605 51.8678 32.6667 51.8678C28.7165 51.8678 25.1919 50.9195 22.0928 49.0228C18.9938 47.1262 16.5931 44.4229 14.8909 40.913C13.1886 37.3813 12.3265 33.3264 12.3047 28.7483V26.3938C12.3047 21.7067 13.1449 17.5864 14.8254 14.0329C16.5277 10.4576 18.9174 7.72159 21.9946 5.82494C25.0937 3.90649 28.6292 2.94727 32.6012 2.94727C36.5732 2.94727 40.0978 3.90649 43.175 5.82494C46.2741 7.72159 48.6638 10.4576 50.3443 14.0329C52.0466 17.5864 52.8977 21.6958 52.8977 26.3611V28.4867ZM42.9459 26.3284C42.9459 21.3361 42.0511 17.5428 40.2615 14.9485C38.4719 12.3542 35.9185 11.0571 32.6012 11.0571C29.3057 11.0571 26.7632 12.3433 24.9736 14.9158C23.1841 17.4665 22.2783 21.2162 22.2565 26.1649V28.4867C22.2565 33.3482 23.1513 37.1197 24.9409 39.8012C26.7305 42.4826 29.3057 43.8234 32.6667 43.8234C35.9621 43.8234 38.4937 42.5371 40.2615 39.9647C42.0292 37.3704 42.924 33.5989 42.9459 28.6502V26.3284Z" fill="#F2ECF2"/>
<path d="M88.8094 23.418H77.4499V51.2138H67.9564V23.418H56.7933V15.8314H88.8094V23.418Z" fill="#F2ECF2"/>
<path d="M112.183 26.263C112.183 25.0204 111.768 24.0611 110.939 23.3853C110.132 22.6877 108.975 22.3389 107.469 22.3389C105.92 22.3389 104.654 22.6659 103.672 23.3199C102.711 23.9521 102.231 24.8569 102.231 26.0341H92.7705C92.7705 22.8294 94.1018 20.2242 96.7643 18.2186C99.4269 16.2129 102.831 15.2101 106.978 15.2101C111.539 15.2101 115.118 16.1039 117.716 17.8916C120.334 19.6792 121.644 22.219 121.644 25.5109C121.644 27.0805 121.164 28.5303 120.204 29.8601C119.265 31.1681 117.934 32.2146 116.21 32.9994C120.247 34.4164 122.266 37.1524 122.266 41.2073C122.266 44.4556 120.869 47.0499 118.076 48.9901C115.304 50.9086 111.605 51.8678 106.978 51.8678C102.679 51.8678 99.1432 50.865 96.3715 48.8593C93.5998 46.8537 92.214 44.1504 92.214 40.7495H101.675C101.675 41.9485 102.209 42.9186 103.279 43.6599C104.348 44.4011 105.745 44.7717 107.469 44.7717C109.15 44.7717 110.459 44.3793 111.397 43.5945C112.336 42.8096 112.805 41.785 112.805 40.5206C112.805 38.9727 112.358 37.8718 111.463 37.2178C110.568 36.542 109.226 36.2041 107.436 36.2041H102.297V30.0563H107.764C110.71 29.9691 112.183 28.7047 112.183 26.263Z" fill="#F2ECF2"/>
<path d="M138.143 26.1976H144.919C147.975 26.1976 150.659 26.7099 152.973 27.7345C155.286 28.7592 157.054 30.2307 158.276 32.1492C159.52 34.0458 160.142 36.2586 160.142 38.7874C160.142 42.5153 158.756 45.5238 155.984 47.8129C153.234 50.0801 149.481 51.2138 144.723 51.2138H128.649V15.8314H138.143V26.1976ZM175.201 51.2138H165.74V15.8314H175.201V51.2138ZM138.143 33.7842V43.6599H144.854C146.731 43.6599 148.171 43.2239 149.175 42.3518C150.179 41.4798 150.681 40.2917 150.681 38.7874C150.681 37.2614 150.19 36.0515 149.208 35.1576C148.226 34.242 146.774 33.7842 144.854 33.7842H138.143Z" fill="#F2ECF2"/>
<path d="M184.17 51.2138V15.8314H198.967C203.79 15.8314 207.489 16.6816 210.065 18.3821C212.64 20.0825 213.928 22.5242 213.928 25.7071C213.928 27.3421 213.382 28.8137 212.291 30.1217C211.221 31.4079 209.65 32.3999 207.577 33.0975C210.108 33.5771 212.094 34.5254 213.535 35.9425C214.997 37.3377 215.728 39.0599 215.728 41.1092C215.728 44.4011 214.484 46.9082 211.996 48.6304C209.53 50.3526 205.94 51.2138 201.226 51.2138H184.17ZM193.631 36.5311V43.6599H201.259C204.598 43.6599 206.267 42.4935 206.267 40.1609C206.267 37.7846 204.674 36.5747 201.488 36.5311H193.631ZM193.631 30.1871H199.491C202.808 30.1435 204.467 29.0753 204.467 26.9824C204.467 25.6962 204.008 24.7806 203.092 24.2355C202.197 23.6905 200.822 23.418 198.967 23.418H193.631V30.1871Z" fill="#F2ECF2"/>
<path d="M231.638 26.1976H238.414C241.47 26.1976 244.154 26.7099 246.467 27.7345C248.781 28.7592 250.549 30.2307 251.771 32.1492C253.015 34.0458 253.637 36.2586 253.637 38.7874C253.637 42.5153 252.251 45.5238 249.479 47.8129C246.729 50.0801 242.976 51.2138 238.218 51.2138H222.144V15.8314H231.638V26.1976ZM268.695 51.2138H259.235V15.8314H268.695V51.2138ZM231.638 33.7842V43.6599H238.349C240.226 43.6599 241.666 43.2239 242.67 42.3518C243.674 41.4798 244.176 40.2917 244.176 38.7874C244.176 37.2614 243.685 36.0515 242.703 35.1576C241.721 34.242 240.269 33.7842 238.349 33.7842H231.638Z" fill="#F2ECF2"/>
</mask>
<g mask="url(#mask5)">
<rect x="490.312" y="29.4707" width="31.2384" height="496.867" transform="rotate(90 490.312 29.4707)" fill="white"/>
</g>
</svg>
