<svg width="26" height="26" viewBox="0 0 26 26" fill="none" xmlns="http://www.w3.org/2000/svg">
<path d="M12.9556 8.63346C12.1011 8.63378 11.2659 8.88752 10.5555 9.36258C9.84519 9.83765 9.29164 10.5127 8.96486 11.3024C8.63808 12.0921 8.55275 12.961 8.71965 13.7993C8.88655 14.6375 9.29819 15.4074 9.90252 16.0116C10.5069 16.6159 11.2767 17.0273 12.1148 17.1939C12.9529 17.3605 13.8216 17.2749 14.611 16.9477C15.4004 16.6206 16.0752 16.0667 16.5499 15.356C17.0246 14.6453 17.2779 13.8098 17.2779 12.9552C17.2771 11.8089 16.8213 10.71 16.0109 9.89963C15.2004 9.08929 14.1015 8.63389 12.9556 8.63346ZM23.0576 5.31157C22.8376 4.75402 22.5054 4.24761 22.0817 3.82378C21.6579 3.39994 21.1517 3.06772 20.5942 2.84771C18.8931 2.17604 14.8429 2.32674 12.9556 2.32674C11.0682 2.32674 7.02202 2.17037 5.31608 2.84771C4.75865 3.06772 4.25235 3.39994 3.82861 3.82378C3.40487 4.24761 3.07271 4.75402 2.85275 5.31157C2.18204 7.01303 2.3319 11.0682 2.3319 12.9543C2.3319 14.8405 2.18204 18.8908 2.85599 20.5979C3.07595 21.1555 3.40811 21.6619 3.83185 22.0857C4.25559 22.5096 4.76189 22.8418 5.31932 23.0618C7.0204 23.7335 11.0706 23.5828 12.9588 23.5828C14.847 23.5828 18.8915 23.7391 20.5975 23.0618C21.1549 22.8418 21.6612 22.5096 22.0849 22.0857C22.5087 21.6619 22.8408 21.1555 23.0608 20.5979C23.7372 18.8965 23.5816 14.8413 23.5816 12.9552C23.5816 11.069 23.7372 7.01951 23.0608 5.31238L23.0576 5.31157ZM12.9556 19.5989C11.6418 19.5989 10.3576 19.2093 9.26528 18.4792C8.17296 17.7492 7.3216 16.7116 6.81886 15.4976C6.31611 14.2836 6.18457 12.9478 6.44087 11.659C6.69717 10.3702 7.32978 9.18644 8.25873 8.2573C9.18767 7.32815 10.3712 6.69539 11.6597 6.43904C12.9482 6.18269 14.2837 6.31426 15.4975 6.81711C16.7112 7.31996 17.7486 8.17151 18.4784 9.26407C19.2083 10.3566 19.5979 11.6411 19.5979 12.9552C19.5989 13.8279 19.4279 14.6923 19.0944 15.4989C18.761 16.3054 18.2718 17.0382 17.6548 17.6554C17.0378 18.2725 16.3051 18.7619 15.4987 19.0954C14.6924 19.4289 13.8281 19.6 12.9556 19.5989ZM19.8717 7.58342C19.565 7.58358 19.2652 7.49276 19.0101 7.32246C18.755 7.15216 18.5562 6.91002 18.4387 6.62668C18.3212 6.34333 18.2904 6.0315 18.3501 5.73063C18.4099 5.42976 18.5575 5.15336 18.7743 4.9364C18.9911 4.71945 19.2673 4.57167 19.5681 4.51177C19.8689 4.45187 20.1806 4.48253 20.464 4.59988C20.7473 4.71723 20.9895 4.91599 21.1599 5.17103C21.3303 5.42607 21.4213 5.72592 21.4213 6.03267C21.4221 6.23636 21.3828 6.43823 21.3054 6.62668C21.2281 6.81512 21.1144 6.98645 20.9707 7.13083C20.827 7.2752 20.6563 7.38979 20.4682 7.46801C20.2802 7.54623 20.0786 7.58656 19.8749 7.58666L19.8717 7.58342ZM25.8255 18.3026C25.721 20.3792 25.2471 22.2192 23.7315 23.731C22.2159 25.2429 20.3779 25.7266 18.3042 25.8254C16.1649 25.9462 9.75104 25.9462 7.61173 25.8254C5.5356 25.7209 3.70248 25.2461 2.18447 23.731C0.666459 22.2159 0.189347 20.3751 0.0905218 18.3026C-0.0301739 16.162 -0.0301739 9.74589 0.0905218 7.60773C0.195017 5.53114 0.663219 3.69114 2.18447 2.17928C3.70572 0.667415 5.5437 0.189388 7.61173 0.0905416C9.75104 -0.0301805 16.1649 -0.0301805 18.3042 0.0905416C20.3804 0.19506 22.2192 0.669846 23.7315 2.18495C25.2438 3.70005 25.7266 5.54086 25.8255 7.61745C25.9461 9.74994 25.9461 16.1604 25.8255 18.3026Z" fill="#04C2E9"/>
</svg>
