<svg width="177" height="25" viewBox="0 0 177 25" fill="none" xmlns="http://www.w3.org/2000/svg">
<path d="M18.2889 7.34954C17.6968 4.56749 16.0521 2.94203 14.21 1.91049C12.7298 1.09775 10.7891 0.753906 9.14443 0.753906C7.30238 0.753906 5.32877 1.12901 3.81566 2.09804C2.0723 3.16084 0.921021 4.9426 0.921021 7.06821C0.921021 8.53737 1.38153 9.85025 2.5657 10.9131C3.78277 12.0071 5.36166 12.4135 7.13791 12.8824L11.4799 14.1015C12.6969 14.4453 13.7495 14.7579 14.5061 15.4456C15.1311 16.0083 15.3942 16.821 15.3942 17.5712C15.3942 18.7903 14.835 19.7281 13.8153 20.447C12.7627 21.1972 11.118 21.5411 9.60494 21.5411C7.59843 21.5411 5.92085 20.8846 4.67089 19.7593C3.74987 18.9466 3.25647 17.8838 3.02621 17.0398L0 17.4774C0.263149 18.7903 0.855234 20.1657 2.00651 21.3848C4.01302 23.4166 6.7103 24.1981 9.50626 24.1981C12.0391 24.1981 14.1771 23.6979 15.9534 22.3538C17.4665 21.2285 18.4204 19.5405 18.4204 17.6337C18.4204 15.9145 18.0915 14.7266 16.8744 13.5388C15.8547 12.5385 14.0127 11.8508 12.1706 11.3507L7.96026 10.2254C6.57872 9.81899 5.49323 9.41262 4.76957 8.78745C4.21038 8.25605 4.01302 7.50583 4.01302 6.94317C4.01302 5.66155 4.90115 4.72379 5.82217 4.19239C6.7103 3.66098 7.89447 3.37966 9.11153 3.41091C10.3615 3.41091 11.6772 3.75476 12.5983 4.28616C13.8811 5.03638 14.8679 6.19296 15.164 7.84968L18.2889 7.34954Z" fill="#F4E7DD"/>
<path d="M70.9473 3.54194V0.759899H57.7539V23.2663H60.5497V13.3885H69.0626V10.6065H60.5497V3.54194H70.9473Z" fill="#F4E7DD"/>
<path d="M96.7436 0.759899H78.5241V3.38565H86.2517V23.2663H89.0474V3.38565H96.7436V0.759899Z" fill="#F4E7DD"/>
<path d="M120.184 3.38565V0.759899H105.891V23.2663H120.184V20.6093H108.687V13.0759H118.299V10.4502H108.687V3.38565H120.184Z" fill="#F4E7DD"/>
<path d="M146.306 15.8892C146.023 16.7957 145.615 17.671 145.05 18.4212C143.73 20.1717 141.688 21.1094 139.395 21.0782C137.071 21.0469 134.935 20.2342 133.615 18.4212C132.139 16.5144 131.825 14.295 131.793 12.0131C131.793 9.69995 132.233 7.35553 133.615 5.60503C134.966 3.82327 137.134 2.91676 139.395 2.94802C141.72 2.97928 143.667 3.79201 145.05 5.60503C145.678 6.44902 146.118 7.41805 146.4 8.44959L149.228 8.04323C148.788 6.19895 148.002 4.51097 146.495 3.07306C144.673 1.16627 142.128 0.291016 139.27 0.291016C136.066 0.291016 133.238 1.44759 131.322 3.88579C129.5 6.16769 128.872 9.04351 128.841 12.0131C128.809 14.7951 129.563 17.7647 131.354 20.1092C133.207 22.5474 136.034 23.7352 139.27 23.7352C142.097 23.7352 144.641 22.9225 146.526 20.9532C147.877 19.6403 148.631 18.1711 149.07 16.5769L146.306 15.8892Z" fill="#F4E7DD"/>
<path d="M173.854 0.759899V10.669H161.948V0.759899H159.152V23.2663H161.948V13.326H173.854V23.2663H176.649V0.759899H173.854Z" fill="#F4E7DD"/>
<mask id="mask0" mask-type="alpha" maskUnits="userSpaceOnUse" x="24" y="0" width="28" height="25">
<rect x="24.4219" y="0.193359" width="27.3335" height="24.1978" fill="#E9D8F9"/>
</mask>
<g mask="url(#mask0)">
<path d="M40.3966 7.67597L38.58 0.873388C38.5644 0.814934 38.4774 0.803459 38.4438 0.855412L26.6358 19.0863C26.5928 19.1527 26.6881 19.221 26.7505 19.1686L40.3751 7.74025C40.3946 7.72387 40.4029 7.69932 40.3966 7.67597Z" fill="#F4E7DD"/>
<path d="M30.313 18.3125L24.987 23.2217C24.9412 23.2639 24.9703 23.3404 25.0325 23.3415L46.8703 23.7343C46.9498 23.7358 46.9683 23.6239 46.8927 23.5996L30.3808 18.2975C30.3572 18.2899 30.3312 18.2956 30.313 18.3125Z" fill="#F4E7DD"/>
<path d="M44.299 21.2441L51.2098 23.414C51.2692 23.4327 51.3209 23.3694 51.2909 23.3149L40.7456 4.18783C40.7073 4.11825 40.6011 4.15793 40.6177 4.23561L44.2522 21.1927C44.2574 21.217 44.2753 21.2366 44.299 21.2441Z" fill="#F4E7DD"/>
</g>
</svg>
