<svg width="27" height="27" viewBox="0 0 27 27" fill="none" xmlns="http://www.w3.org/2000/svg">
<mask id="mask0" mask-type="alpha" maskUnits="userSpaceOnUse" x="0" y="0" width="27" height="27">
<path d="M0 0H27V27H0V0Z" fill="#04C2E9"/>
</mask>
<g mask="url(#mask0)">
<path d="M18.0663 19.3939L20.2386 8.81524C20.3272 8.36747 20.2755 8.0469 20.0834 7.85355C19.8913 7.66019 19.6376 7.62457 19.3224 7.74669L6.55459 12.83C6.26889 12.9419 6.07432 13.0691 5.97088 13.2116C5.86744 13.3541 5.85512 13.4889 5.93393 13.6161C6.01275 13.7433 6.17038 13.8425 6.40682 13.9138L9.67265 14.9671L17.2535 10.0364C17.4604 9.89397 17.618 9.86344 17.7264 9.94486C17.7954 9.99574 17.7757 10.0721 17.6673 10.1738L11.5346 15.8982L11.2982 19.3787C11.5248 19.3787 11.7464 19.2667 11.9632 19.0428L13.5591 17.4553L16.8693 19.974C17.4998 20.3404 17.8988 20.147 18.0663 19.3939Z" fill="#04C2E9"/>
<path fill-rule="evenodd" clip-rule="evenodd" d="M13.5629 24.8758C19.8799 24.8758 25.0008 19.7549 25.0008 13.4379C25.0008 7.12093 19.8799 2 13.5629 2C7.24593 2 2.125 7.12093 2.125 13.4379C2.125 19.7549 7.24593 24.8758 13.5629 24.8758ZM13.5629 26.8758C20.9845 26.8758 27.0008 20.8595 27.0008 13.4379C27.0008 6.01636 20.9845 0 13.5629 0C6.14136 0 0.125 6.01636 0.125 13.4379C0.125 20.8595 6.14136 26.8758 13.5629 26.8758Z" fill="#04C2E9"/>
</g>
</svg>
