<svg width="27" height="28" viewBox="0 0 27 28" fill="none" xmlns="http://www.w3.org/2000/svg">
<path d="M18.0663 20.39L20.2386 9.81134C20.3272 9.36356 20.2755 9.043 20.0834 8.84964C19.8913 8.65628 19.6376 8.62066 19.3224 8.74278L6.55459 13.826C6.26889 13.938 6.07432 14.0652 5.97088 14.2077C5.86744 14.3501 5.85512 14.485 5.93393 14.6122C6.01275 14.7394 6.17038 14.8386 6.40682 14.9099L9.67265 15.9632L17.2535 11.0325C17.4604 10.8901 17.618 10.8595 17.7264 10.941C17.7954 10.9918 17.7757 11.0682 17.6673 11.1699L11.5346 16.8943L11.2982 20.3748C11.5248 20.3748 11.7464 20.2628 11.9632 20.0389L13.5591 18.4514L16.8693 20.9701C17.4998 21.3364 17.8988 21.1431 18.0663 20.39Z" fill="#8F8F8F"/>
<circle cx="13.5629" cy="14.434" r="12.4379" stroke="#8F8F8F" stroke-width="2"/>
</svg>
