<svg width="94" height="47" viewBox="0 0 94 47" fill="none" xmlns="http://www.w3.org/2000/svg">
<path d="M82 41.755L92.4035 31.3516M92.4035 31.3516V41.1062M92.4035 31.3516H82.4989" stroke="#333333" stroke-width="1.5"/>
<path d="M10.432 16.9355H8.56V7.91155H3.008V16.9355H1.136V6.26355H10.432V16.9355ZM15.8185 17.1275C14.6238 17.1275 13.6638 16.7382 12.9385 15.9595C12.2132 15.1702 11.8505 14.2049 11.8505 13.0635C11.8505 11.9222 12.2132 10.9622 12.9385 10.1835C13.6638 9.40488 14.6238 9.01555 15.8185 9.01555C17.0238 9.01555 17.9892 9.40488 18.7145 10.1835C19.4398 10.9622 19.8025 11.9222 19.8025 13.0635C19.8025 14.2155 19.4398 15.1809 18.7145 15.9595C17.9892 16.7382 17.0238 17.1275 15.8185 17.1275ZM15.8185 15.6395C16.5118 15.6395 17.0558 15.3942 17.4505 14.9035C17.8558 14.4022 18.0585 13.7889 18.0585 13.0635C18.0585 12.3489 17.8558 11.7462 17.4505 11.2555C17.0558 10.7542 16.5118 10.5035 15.8185 10.5035C15.1358 10.5035 14.5918 10.7542 14.1865 11.2555C13.7918 11.7462 13.5945 12.3489 13.5945 13.0635C13.5945 13.7889 13.7918 14.4022 14.1865 14.9035C14.5918 15.3942 15.1358 15.6395 15.8185 15.6395ZM24.7024 17.1275C23.529 17.1275 22.569 16.7489 21.8224 15.9915C21.0757 15.2235 20.7024 14.2475 20.7024 13.0635C20.7024 11.8902 21.0757 10.9249 21.8224 10.1675C22.569 9.39955 23.529 9.01555 24.7024 9.01555C25.993 9.01555 26.9797 9.47421 27.6624 10.3915L26.5584 11.4155C26.1317 10.8075 25.5397 10.5035 24.7824 10.5035C24.0784 10.5035 23.513 10.7435 23.0864 11.2235C22.6597 11.6929 22.4464 12.3062 22.4464 13.0635C22.4464 13.8209 22.6597 14.4395 23.0864 14.9195C23.513 15.3995 24.0784 15.6395 24.7824 15.6395C25.5184 15.6395 26.1104 15.3355 26.5584 14.7275L27.6624 15.7515C26.9797 16.6689 25.993 17.1275 24.7024 17.1275ZM32.3835 17.1275C31.2102 17.1275 30.2395 16.7542 29.4715 16.0075C28.7142 15.2502 28.3355 14.2689 28.3355 13.0635C28.3355 11.9329 28.7035 10.9782 29.4395 10.1995C30.1862 9.41021 31.1248 9.01555 32.2555 9.01555C33.3968 9.01555 34.3142 9.41021 35.0075 10.1995C35.7115 10.9889 36.0635 11.9969 36.0635 13.2235V13.6235H30.0955C30.1595 14.2315 30.4102 14.7382 30.8475 15.1435C31.2848 15.5489 31.8555 15.7515 32.5595 15.7515C32.9542 15.7515 33.3488 15.6769 33.7435 15.5275C34.1488 15.3782 34.4848 15.1702 34.7515 14.9035L35.5195 16.0075C34.7408 16.7542 33.6955 17.1275 32.3835 17.1275ZM34.4315 12.4395C34.4102 11.9062 34.2128 11.4315 33.8395 11.0155C33.4768 10.5995 32.9488 10.3915 32.2555 10.3915C31.5942 10.3915 31.0768 10.5995 30.7035 11.0155C30.3302 11.4209 30.1222 11.8955 30.0795 12.4395H34.4315ZM40.4898 16.9355H38.8098V10.6795H36.6018V9.20755H42.7138V10.6795H40.4898V16.9355ZM45.3853 16.9355H43.7693V9.20755H45.4493V14.4075L49.0013 9.20755H50.6813V16.9355H49.0013V11.5915L45.3853 16.9355ZM55.631 16.9355H53.951V10.6795H51.743V9.20755H57.855V10.6795H55.631V16.9355ZM62.4785 17.1275C61.3052 17.1275 60.3345 16.7542 59.5665 16.0075C58.8092 15.2502 58.4305 14.2689 58.4305 13.0635C58.4305 11.9329 58.7985 10.9782 59.5345 10.1995C60.2812 9.41021 61.2198 9.01555 62.3505 9.01555C63.4918 9.01555 64.4092 9.41021 65.1025 10.1995C65.8065 10.9889 66.1585 11.9969 66.1585 13.2235V13.6235H60.1905C60.2545 14.2315 60.5052 14.7382 60.9425 15.1435C61.3798 15.5489 61.9505 15.7515 62.6545 15.7515C63.0492 15.7515 63.4438 15.6769 63.8385 15.5275C64.2438 15.3782 64.5798 15.1702 64.8465 14.9035L65.6145 16.0075C64.8358 16.7542 63.7905 17.1275 62.4785 17.1275ZM64.5265 12.4395C64.5052 11.9062 64.3078 11.4315 63.9345 11.0155C63.5718 10.5995 63.0438 10.3915 62.3505 10.3915C61.6892 10.3915 61.1718 10.5995 60.7985 11.0155C60.4252 11.4209 60.2172 11.8955 60.1745 12.4395H64.5265ZM2.768 39.9355H1.088V32.2075H2.768V35.2475H6.32V32.2075H8V39.9355H6.32V36.7195H2.768V39.9355ZM16.2618 39.9355H14.5818V39.1035C13.9844 39.7862 13.1524 40.1275 12.0858 40.1275C11.3818 40.1275 10.7578 39.9035 10.2138 39.4555C9.66975 38.9969 9.39775 38.3675 9.39775 37.5675C9.39775 36.7462 9.66442 36.1222 10.1978 35.6955C10.7418 35.2689 11.3711 35.0555 12.0858 35.0555C13.1844 35.0555 14.0164 35.3862 14.5818 36.0475V34.8955C14.5818 34.4475 14.4164 34.0955 14.0858 33.8395C13.7551 33.5835 13.3178 33.4555 12.7738 33.4555C11.9098 33.4555 11.1471 33.7809 10.4858 34.4315L9.79775 33.2635C10.6724 32.4315 11.7551 32.0155 13.0458 32.0155C13.9951 32.0155 14.7684 32.2395 15.3658 32.6875C15.9631 33.1355 16.2618 33.8449 16.2618 34.8155V39.9355ZM12.7418 38.9755C13.5844 38.9755 14.1978 38.7089 14.5818 38.1755V37.0075C14.1978 36.4742 13.5844 36.2075 12.7418 36.2075C12.2618 36.2075 11.8671 36.3355 11.5578 36.5915C11.2484 36.8475 11.0938 37.1835 11.0938 37.5995C11.0938 38.0155 11.2484 38.3515 11.5578 38.6075C11.8671 38.8529 12.2618 38.9755 12.7418 38.9755ZM26.9199 32.2075H28.5999V39.9355H18.1199V32.2075H19.7999V38.4635H22.5199V32.2075H24.1999V38.4635H26.9199V32.2075ZM37.7655 40.1275C36.5922 40.1275 35.6322 39.7489 34.8855 38.9915C34.1388 38.2235 33.7655 37.2475 33.7655 36.0635C33.7655 34.8902 34.1388 33.9249 34.8855 33.1675C35.6322 32.3995 36.5922 32.0155 37.7655 32.0155C39.0562 32.0155 40.0428 32.4742 40.7255 33.3915L39.6215 34.4155C39.1948 33.8075 38.6028 33.5035 37.8455 33.5035C37.1415 33.5035 36.5762 33.7435 36.1495 34.2235C35.7228 34.6929 35.5095 35.3062 35.5095 36.0635C35.5095 36.8209 35.7228 37.4395 36.1495 37.9195C36.5762 38.3995 37.1415 38.6395 37.8455 38.6395C38.5815 38.6395 39.1735 38.3355 39.6215 37.7275L40.7255 38.7515C40.0428 39.6689 39.0562 40.1275 37.7655 40.1275ZM48.2786 39.9355H46.5986V39.1035C46.0013 39.7862 45.1693 40.1275 44.1026 40.1275C43.3986 40.1275 42.7746 39.9035 42.2306 39.4555C41.6866 38.9969 41.4146 38.3675 41.4146 37.5675C41.4146 36.7462 41.6813 36.1222 42.2146 35.6955C42.7586 35.2689 43.388 35.0555 44.1026 35.0555C45.2013 35.0555 46.0333 35.3862 46.5986 36.0475V34.8955C46.5986 34.4475 46.4333 34.0955 46.1026 33.8395C45.772 33.5835 45.3346 33.4555 44.7906 33.4555C43.9266 33.4555 43.164 33.7809 42.5026 34.4315L41.8146 33.2635C42.6893 32.4315 43.772 32.0155 45.0626 32.0155C46.012 32.0155 46.7853 32.2395 47.3826 32.6875C47.98 33.1355 48.2786 33.8449 48.2786 34.8155V39.9355ZM44.7586 38.9755C45.6013 38.9755 46.2146 38.7089 46.5986 38.1755V37.0075C46.2146 36.4742 45.6013 36.2075 44.7586 36.2075C44.2786 36.2075 43.884 36.3355 43.5746 36.5915C43.2653 36.8475 43.1106 37.1835 43.1106 37.5995C43.1106 38.0155 43.2653 38.3515 43.5746 38.6075C43.884 38.8529 44.2786 38.9755 44.7586 38.9755ZM51.7528 39.9355H50.1368V32.2075H51.8168V37.4075L55.3688 32.2075H57.0488V39.9355H55.3688V34.5915L51.7528 39.9355ZM56.3928 29.9835C55.6994 30.9222 54.7661 31.3915 53.5928 31.3915C52.4301 31.3915 51.4914 30.9222 50.7768 29.9835L51.5448 29.3435C52.0568 30.0475 52.7394 30.3995 53.5928 30.3995C54.4461 30.3995 55.1234 30.0475 55.6248 29.3435L56.3928 29.9835ZM61.9985 39.9355H60.3185V33.6795H58.1105V32.2075H64.2225V33.6795H61.9985V39.9355Z" fill="#333333"/>
</svg>
