<svg width="93" height="47" viewBox="0 0 93 47" fill="none" xmlns="http://www.w3.org/2000/svg">
<path d="M78 41.4035L88.4035 31M88.4035 31V40.7546M88.4035 31H78.4989" stroke="#F4E7DD" stroke-width="1.5"/>
<path d="M1.936 17.792C1.488 17.792 1.264 17.536 1.264 17.024V7.31198H9.36V17.024C9.36 17.536 9.136 17.792 8.688 17.792C8.24 17.792 8.016 17.536 8.016 17.024V8.65598H2.608V17.024C2.608 17.536 2.384 17.792 1.936 17.792ZM15.329 17.68C14.305 17.68 13.489 17.5893 12.881 17.408C12.2783 17.2213 11.8437 16.9147 11.577 16.488C11.3157 16.056 11.185 15.472 11.185 14.736V13.056C11.185 12.32 11.3157 11.7387 11.577 11.312C11.8437 10.88 12.2783 10.5733 12.881 10.392C13.489 10.2053 14.305 10.112 15.329 10.112H15.793C16.817 10.112 17.6303 10.2053 18.233 10.392C18.8357 10.5787 19.2677 10.888 19.529 11.32C19.7903 11.7467 19.921 12.3253 19.921 13.056V14.736C19.921 15.4667 19.7903 16.048 19.529 16.48C19.2677 16.9067 18.8357 17.2133 18.233 17.4C17.6303 17.5867 16.817 17.68 15.793 17.68H15.329ZM15.329 16.336H15.793C16.593 16.336 17.1903 16.2987 17.585 16.224C17.985 16.144 18.249 15.9867 18.377 15.752C18.5103 15.512 18.577 15.1573 18.577 14.688V13.104C18.577 12.6293 18.5103 12.2747 18.377 12.04C18.249 11.8053 17.985 11.6507 17.585 11.576C17.1903 11.496 16.593 11.456 15.793 11.456H15.329C14.5237 11.456 13.921 11.496 13.521 11.576C13.121 11.6507 12.8543 11.8053 12.721 12.04C12.593 12.2747 12.529 12.6293 12.529 13.104V14.688C12.529 15.1573 12.593 15.512 12.721 15.752C12.8543 15.9867 13.121 16.144 13.521 16.224C13.921 16.2987 14.5237 16.336 15.329 16.336ZM25.509 17.68C24.485 17.68 23.669 17.5893 23.061 17.408C22.4583 17.2213 22.0237 16.9147 21.757 16.488C21.4957 16.056 21.365 15.472 21.365 14.736V13.056C21.365 12.32 21.4957 11.7387 21.757 11.312C22.0237 10.88 22.4583 10.5733 23.061 10.392C23.669 10.2053 24.485 10.112 25.509 10.112H27.765C28.1863 10.112 28.533 10.184 28.805 10.328C29.0823 10.4667 29.2877 10.6827 29.421 10.976C29.5543 11.264 29.621 11.632 29.621 12.08C29.621 12.368 29.5623 12.5893 29.445 12.744C29.333 12.8987 29.1677 12.976 28.949 12.976C28.7357 12.976 28.5703 12.904 28.453 12.76C28.3357 12.6107 28.277 12.4053 28.277 12.144C28.277 11.8773 28.2343 11.696 28.149 11.6C28.0637 11.504 27.8983 11.456 27.653 11.456H25.509C24.7037 11.456 24.101 11.496 23.701 11.576C23.301 11.6507 23.0343 11.8053 22.901 12.04C22.773 12.2747 22.709 12.6293 22.709 13.104V14.688C22.709 15.1573 22.773 15.512 22.901 15.752C23.0343 15.9867 23.301 16.144 23.701 16.224C24.101 16.2987 24.7037 16.336 25.509 16.336H27.653C27.9037 16.336 28.069 16.2907 28.149 16.2C28.2343 16.1093 28.277 15.9307 28.277 15.664C28.277 15.4133 28.333 15.2107 28.445 15.056C28.557 14.896 28.7197 14.816 28.933 14.816C29.141 14.816 29.3063 14.8933 29.429 15.048C29.557 15.1973 29.621 15.424 29.621 15.728C29.621 16.1707 29.5543 16.5387 29.421 16.832C29.2877 17.12 29.0823 17.3333 28.805 17.472C28.533 17.6107 28.1863 17.68 27.765 17.68H25.509ZM35.1734 17.68C34.1494 17.68 33.3334 17.5893 32.7254 17.408C32.1227 17.2213 31.688 16.9147 31.4214 16.488C31.16 16.056 31.0294 15.472 31.0294 14.736V13.056C31.0294 12.32 31.16 11.7387 31.4214 11.312C31.688 10.88 32.1227 10.5733 32.7254 10.392C33.3334 10.2053 34.1494 10.112 35.1734 10.112H35.6374C36.6614 10.112 37.4747 10.2053 38.0774 10.392C38.68 10.5787 39.112 10.888 39.3734 11.32C39.6347 11.7467 39.7654 12.3253 39.7654 13.056V13.92H32.3734V14.688C32.3734 15.1573 32.4374 15.512 32.5654 15.752C32.6987 15.9867 32.9654 16.144 33.3654 16.224C33.7654 16.2987 34.368 16.336 35.1734 16.336H37.6374C37.888 16.336 38.0534 16.2907 38.1334 16.2C38.2187 16.1093 38.2614 15.9307 38.2614 15.664C38.2614 15.3973 38.32 15.1893 38.4374 15.04C38.56 14.8907 38.728 14.816 38.9414 14.816C39.16 14.8213 39.3254 14.904 39.4374 15.064C39.5494 15.2187 39.6054 15.44 39.6054 15.728C39.6054 16.1707 39.5387 16.5387 39.4054 16.832C39.272 17.12 39.0667 17.3333 38.7894 17.472C38.5174 17.6107 38.1707 17.68 37.7494 17.68H35.1734ZM32.3814 12.576H38.4134C38.3547 12.1067 38.1654 11.808 37.8454 11.68C37.6534 11.6053 37.368 11.5493 36.9894 11.512C36.616 11.4747 36.1654 11.456 35.6374 11.456H35.1734C34.5974 11.456 34.12 11.4773 33.7414 11.52C33.368 11.5573 33.0934 11.616 32.9174 11.696C32.5974 11.8293 32.4187 12.1227 32.3814 12.576ZM44.2833 17.792C43.7926 17.792 43.5473 17.552 43.5473 17.072V11.456H41.2433C40.7206 11.456 40.4593 11.232 40.4593 10.784C40.4593 10.336 40.7206 10.112 41.2433 10.112H47.3393C47.8619 10.112 48.1233 10.336 48.1233 10.784C48.1233 11.232 47.8619 11.456 47.3393 11.456H45.0513V17.072C45.0513 17.2907 44.9819 17.464 44.8433 17.592C44.7046 17.7253 44.5179 17.792 44.2833 17.792ZM56.5378 17.792C56.0898 17.792 55.8658 17.5147 55.8658 16.96V12.016L50.3698 17.68H49.1138V10.784C49.1138 10.2613 49.3378 9.99998 49.7858 9.99998C50.2338 9.99998 50.4578 10.2773 50.4578 10.832V15.84L56.0018 10.112H57.2098V17.008C57.2098 17.5307 56.9858 17.792 56.5378 17.792ZM62.0339 17.792C61.5432 17.792 61.2979 17.552 61.2979 17.072V11.456H58.9939C58.4712 11.456 58.2099 11.232 58.2099 10.784C58.2099 10.336 58.4712 10.112 58.9939 10.112H65.0899C65.6125 10.112 65.8739 10.336 65.8739 10.784C65.8739 11.232 65.6125 11.456 65.0899 11.456H62.8019V17.072C62.8019 17.2907 62.7325 17.464 62.5939 17.592C62.4552 17.7253 62.2685 17.792 62.0339 17.792ZM70.7684 17.68C69.7444 17.68 68.9284 17.5893 68.3204 17.408C67.7177 17.2213 67.283 16.9147 67.0164 16.488C66.755 16.056 66.6244 15.472 66.6244 14.736V13.056C66.6244 12.32 66.755 11.7387 67.0164 11.312C67.283 10.88 67.7177 10.5733 68.3204 10.392C68.9284 10.2053 69.7444 10.112 70.7684 10.112H71.2324C72.2564 10.112 73.0697 10.2053 73.6724 10.392C74.275 10.5787 74.707 10.888 74.9684 11.32C75.2297 11.7467 75.3604 12.3253 75.3604 13.056V13.92H67.9684V14.688C67.9684 15.1573 68.0324 15.512 68.1604 15.752C68.2937 15.9867 68.5604 16.144 68.9604 16.224C69.3604 16.2987 69.963 16.336 70.7684 16.336H73.2324C73.483 16.336 73.6484 16.2907 73.7284 16.2C73.8137 16.1093 73.8564 15.9307 73.8564 15.664C73.8564 15.3973 73.915 15.1893 74.0324 15.04C74.155 14.8907 74.323 14.816 74.5364 14.816C74.755 14.8213 74.9204 14.904 75.0324 15.064C75.1444 15.2187 75.2004 15.44 75.2004 15.728C75.2004 16.1707 75.1337 16.5387 75.0004 16.832C74.867 17.12 74.6617 17.3333 74.3844 17.472C74.1124 17.6107 73.7657 17.68 73.3444 17.68H70.7684ZM67.9764 12.576H74.0084C73.9497 12.1067 73.7604 11.808 73.4404 11.68C73.2484 11.6053 72.963 11.5493 72.5844 11.512C72.211 11.4747 71.7604 11.456 71.2324 11.456H70.7684C70.1924 11.456 69.715 11.4773 69.3364 11.52C68.963 11.5573 68.6884 11.616 68.5124 11.696C68.1924 11.8293 68.0137 12.1227 67.9764 12.576ZM1.776 40.792C1.328 40.792 1.104 40.536 1.104 40.024V33.784C1.104 33.2613 1.31733 33 1.744 33C2.21333 33 2.448 33.2613 2.448 33.784V36.008H7.856V33.784C7.856 33.2613 8.08 33 8.528 33C8.976 33 9.2 33.2613 9.2 33.784V40.024C9.2 40.536 8.976 40.792 8.528 40.792C8.08 40.792 7.856 40.536 7.856 40.024V37.352H2.448V40.024C2.448 40.536 2.224 40.792 1.776 40.792ZM17.7529 40.792C17.6195 40.792 17.5102 40.752 17.4249 40.672C17.3395 40.5973 17.2755 40.4347 17.2329 40.184C17.1955 39.9333 17.1769 39.5493 17.1769 39.032L17.3529 39.448C17.0169 39.912 16.5955 40.2347 16.0889 40.416C15.5875 40.592 14.9955 40.68 14.3129 40.68H12.8249C12.2435 40.68 11.7689 40.488 11.4009 40.104C11.0382 39.7147 10.8569 39.128 10.8569 38.344C10.8569 37.8533 10.9369 37.44 11.0969 37.104C11.2569 36.7627 11.5049 36.488 11.8409 36.28C12.1769 36.0667 12.6062 35.912 13.1289 35.816C13.6515 35.72 14.2755 35.672 15.0009 35.672H17.7049L17.0969 36.216V35.032C17.0969 34.7973 17.0569 34.6427 16.9769 34.568C16.9022 34.4933 16.7342 34.456 16.4729 34.456H14.2169C13.6782 34.456 13.2649 34.4693 12.9769 34.496C12.6942 34.5227 12.4969 34.576 12.3849 34.656C12.2729 34.7307 12.2115 34.84 12.2009 34.984C12.1795 35.2613 12.1289 35.4667 12.0489 35.6C11.9689 35.7333 11.7955 35.8 11.5289 35.8C11.0809 35.8 10.8569 35.512 10.8569 34.936C10.8569 34.3013 11.1209 33.84 11.6489 33.552C12.1769 33.2587 12.9955 33.112 14.1049 33.112H16.5849C17.2675 33.112 17.7475 33.2747 18.0249 33.6C18.3022 33.9253 18.4409 34.488 18.4409 35.288V40.024C18.4409 40.536 18.2115 40.792 17.7529 40.792ZM12.8729 39.4H14.3129C15.3209 39.4 16.0355 39.1973 16.4569 38.792C16.8835 38.3813 17.0969 37.736 17.0969 36.856L17.1929 36.952H15.0009C14.2969 36.952 13.7395 36.9867 13.3289 37.056C12.9235 37.12 12.6329 37.248 12.4569 37.44C12.2862 37.632 12.2009 37.9173 12.2009 38.296C12.2009 38.6373 12.2595 38.9067 12.3769 39.104C12.4995 39.3013 12.6649 39.4 12.8729 39.4ZM20.2769 40.68V33.768C20.2769 33.256 20.5009 33 20.9489 33C21.3969 33 21.6209 33.256 21.6209 33.768V39.336H23.9089V33.768C23.9089 33.256 24.1329 33 24.5809 33C25.0289 33 25.2529 33.256 25.2529 33.768V39.336H27.5409V33.768C27.5409 33.256 27.7649 33 28.2129 33C28.6609 33 28.8849 33.256 28.8849 33.768V40.68H20.2769ZM39.4159 40.68C38.3919 40.68 37.5759 40.5893 36.9679 40.408C36.3652 40.2213 35.9305 39.9147 35.6639 39.488C35.4025 39.056 35.2719 38.472 35.2719 37.736V36.056C35.2719 35.32 35.4025 34.7387 35.6639 34.312C35.9305 33.88 36.3652 33.5733 36.9679 33.392C37.5759 33.2053 38.3919 33.112 39.4159 33.112H41.6719C42.0932 33.112 42.4399 33.184 42.7119 33.328C42.9892 33.4667 43.1945 33.6827 43.3279 33.976C43.4612 34.264 43.5279 34.632 43.5279 35.08C43.5279 35.368 43.4692 35.5893 43.3519 35.744C43.2399 35.8987 43.0745 35.976 42.8559 35.976C42.6425 35.976 42.4772 35.904 42.3599 35.76C42.2425 35.6107 42.1839 35.4053 42.1839 35.144C42.1839 34.8773 42.1412 34.696 42.0559 34.6C41.9705 34.504 41.8052 34.456 41.5599 34.456H39.4159C38.6105 34.456 38.0079 34.496 37.6079 34.576C37.2079 34.6507 36.9412 34.8053 36.8079 35.04C36.6799 35.2747 36.6159 35.6293 36.6159 36.104V37.688C36.6159 38.1573 36.6799 38.512 36.8079 38.752C36.9412 38.9867 37.2079 39.144 37.6079 39.224C38.0079 39.2987 38.6105 39.336 39.4159 39.336H41.5599C41.8105 39.336 41.9759 39.2907 42.0559 39.2C42.1412 39.1093 42.1839 38.9307 42.1839 38.664C42.1839 38.4133 42.2399 38.2107 42.3519 38.056C42.4639 37.896 42.6265 37.816 42.8399 37.816C43.0479 37.816 43.2132 37.8933 43.3359 38.048C43.4639 38.1973 43.5279 38.424 43.5279 38.728C43.5279 39.1707 43.4612 39.5387 43.3279 39.832C43.1945 40.12 42.9892 40.3333 42.7119 40.472C42.4399 40.6107 42.0932 40.68 41.6719 40.68H39.4159ZM51.8323 40.792C51.6989 40.792 51.5896 40.752 51.5043 40.672C51.4189 40.5973 51.3549 40.4347 51.3123 40.184C51.2749 39.9333 51.2563 39.5493 51.2563 39.032L51.4323 39.448C51.0963 39.912 50.6749 40.2347 50.1683 40.416C49.6669 40.592 49.0749 40.68 48.3923 40.68H46.9043C46.3229 40.68 45.8483 40.488 45.4803 40.104C45.1176 39.7147 44.9363 39.128 44.9363 38.344C44.9363 37.8533 45.0163 37.44 45.1763 37.104C45.3363 36.7627 45.5843 36.488 45.9203 36.28C46.2563 36.0667 46.6856 35.912 47.2083 35.816C47.7309 35.72 48.3549 35.672 49.0803 35.672H51.7843L51.1763 36.216V35.032C51.1763 34.7973 51.1363 34.6427 51.0563 34.568C50.9816 34.4933 50.8136 34.456 50.5523 34.456H48.2963C47.7576 34.456 47.3443 34.4693 47.0563 34.496C46.7736 34.5227 46.5763 34.576 46.4643 34.656C46.3523 34.7307 46.2909 34.84 46.2803 34.984C46.2589 35.2613 46.2083 35.4667 46.1283 35.6C46.0483 35.7333 45.8749 35.8 45.6083 35.8C45.1603 35.8 44.9363 35.512 44.9363 34.936C44.9363 34.3013 45.2003 33.84 45.7283 33.552C46.2563 33.2587 47.0749 33.112 48.1843 33.112H50.6643C51.3469 33.112 51.8269 33.2747 52.1043 33.6C52.3816 33.9253 52.5203 34.488 52.5203 35.288V40.024C52.5203 40.536 52.2909 40.792 51.8323 40.792ZM46.9523 39.4H48.3923C49.4003 39.4 50.1149 39.1973 50.5363 38.792C50.9629 38.3813 51.1763 37.736 51.1763 36.856L51.2723 36.952H49.0803C48.3763 36.952 47.8189 36.9867 47.4083 37.056C47.0029 37.12 46.7123 37.248 46.5363 37.44C46.3656 37.632 46.2803 37.9173 46.2803 38.296C46.2803 38.6373 46.3389 38.9067 46.4563 39.104C46.5789 39.3013 46.7443 39.4 46.9523 39.4ZM61.7803 40.792C61.3323 40.792 61.1083 40.5147 61.1083 39.96V35.016L55.6123 40.68H54.3563V33.784C54.3563 33.2613 54.5803 33 55.0283 33C55.4763 33 55.7003 33.2773 55.7003 33.832V38.84L61.2443 33.112H62.4523V40.008C62.4523 40.5307 62.2283 40.792 61.7803 40.792ZM57.4763 32.728C56.8469 32.728 56.4043 32.568 56.1483 32.248C55.8923 31.9227 55.7643 31.3733 55.7643 30.6V29.912H57.1083V30.856C57.1083 31.096 57.1349 31.2453 57.1883 31.304C57.2416 31.3573 57.3803 31.384 57.6043 31.384H59.2363C59.4549 31.384 59.5883 31.3573 59.6363 31.304C59.6896 31.2453 59.7163 31.096 59.7163 30.856V29.912H61.0603V30.6C61.0603 31.384 60.9323 31.936 60.6763 32.256C60.4256 32.5707 59.9829 32.728 59.3483 32.728H57.4763ZM67.2764 40.792C66.7857 40.792 66.5404 40.552 66.5404 40.072V34.456H64.2364C63.7137 34.456 63.4524 34.232 63.4524 33.784C63.4524 33.336 63.7137 33.112 64.2364 33.112H70.3324C70.855 33.112 71.1164 33.336 71.1164 33.784C71.1164 34.232 70.855 34.456 70.3324 34.456H68.0444V40.072C68.0444 40.2907 67.975 40.464 67.8364 40.592C67.6977 40.7253 67.511 40.792 67.2764 40.792Z" fill="#F4E7DD"/>
</svg>
