<svg width="27" height="26" viewBox="0 0 27 26" fill="none" xmlns="http://www.w3.org/2000/svg">
<path d="M13.872 2.17046C7.98426 2.17046 3.19791 6.95682 3.18981 12.8446C3.18981 14.8612 3.75672 16.8292 4.82575 18.5218L5.07682 18.9268L3.99968 22.8627L8.04096 21.8018L8.4297 22.0367C10.0656 23.0085 11.9445 23.5268 13.8639 23.5268H13.872C19.7517 23.5268 24.6677 18.7405 24.6677 12.8527C24.6677 10.0019 23.4367 7.32126 21.4201 5.30468C19.3954 3.27999 16.7228 2.17046 13.872 2.17046ZM20.1486 17.4285C19.8813 18.1817 18.6017 18.862 17.9862 18.9511C16.9658 19.1049 16.1721 19.0239 14.1393 18.1493C10.9241 16.7563 8.81843 13.5168 8.65646 13.3062C8.49449 13.0957 7.34446 11.565 7.34446 9.98575C7.34446 8.40649 8.17054 7.62901 8.47019 7.30506C8.76174 6.98111 9.10999 6.90013 9.32865 6.90013C9.53922 6.90013 9.75789 6.90013 9.94416 6.90823C10.1385 6.91633 10.4058 6.83534 10.6649 7.45894C10.9322 8.09874 11.572 9.678 11.653 9.83997C11.734 10.0019 11.7907 10.1882 11.6773 10.3988C11.0618 11.6298 10.4058 11.5812 10.7378 12.1481C11.9769 14.2781 13.2161 15.0151 15.1031 15.9626C15.427 16.1246 15.6133 16.1003 15.7996 15.8816C15.9858 15.6711 16.6013 14.9422 16.8119 14.6263C17.0225 14.3024 17.2411 14.3591 17.5327 14.4644C17.8242 14.5696 19.4035 15.3471 19.7274 15.5091C20.0514 15.6711 20.262 15.7521 20.3429 15.8816C20.4158 16.0355 20.4158 16.6834 20.1486 17.4285ZM13.8639 25.6892C11.7097 25.6892 9.59591 25.1466 7.7251 24.1262L0.914062 25.916L2.73628 19.2588C1.61055 17.3151 1.01935 15.1042 1.01935 12.8365C1.02745 5.7582 6.78565 0 13.8639 0C17.2978 0 20.5211 1.33629 22.9507 3.76591C25.3723 6.19554 26.83 9.41884 26.83 12.8527C26.83 19.931 20.9422 25.6892 13.8639 25.6892Z" fill="#C4C4C4"/>
</svg>
