<svg width="27" height="27" viewBox="0 0 27 27" fill="none" xmlns="http://www.w3.org/2000/svg">
<path d="M13.5 2.26125C7.36594 2.26125 2.37937 7.24781 2.37094 13.3819C2.37094 15.4828 2.96156 17.5331 4.07531 19.2966L4.33688 19.7184L3.21469 23.8191L7.425 22.7138L7.83 22.9584C9.53438 23.9709 11.4919 24.5109 13.4916 24.5109H13.5C19.6256 24.5109 24.7472 19.5244 24.7472 13.3903C24.7472 10.4203 23.4647 7.6275 21.3638 5.52656C19.2544 3.41719 16.47 2.26125 13.5 2.26125ZM20.0391 18.1575C19.7606 18.9422 18.4275 19.6509 17.7862 19.7437C16.7231 19.9041 15.8963 19.8197 13.7784 18.9084C10.4288 17.4572 8.235 14.0822 8.06625 13.8628C7.8975 13.6434 6.69937 12.0488 6.69937 10.4034C6.69937 8.75813 7.56 7.94812 7.87219 7.61062C8.17594 7.27312 8.53875 7.18875 8.76656 7.18875C8.98594 7.18875 9.21375 7.18875 9.40781 7.19719C9.61031 7.20563 9.88875 7.12125 10.1587 7.77094C10.4372 8.4375 11.1038 10.0828 11.1881 10.2516C11.2725 10.4203 11.3316 10.6144 11.2134 10.8337C10.5722 12.1163 9.88875 12.0656 10.2347 12.6562C11.5256 14.8753 12.8166 15.6431 14.7825 16.6303C15.12 16.7991 15.3141 16.7738 15.5081 16.5459C15.7022 16.3266 16.3434 15.5672 16.5628 15.2381C16.7822 14.9006 17.01 14.9597 17.3138 15.0694C17.6175 15.1791 19.2628 15.9891 19.6003 16.1578C19.9378 16.3266 20.1572 16.4109 20.2416 16.5459C20.3175 16.7063 20.3175 17.3813 20.0391 18.1575ZM13.4916 26.7638C11.2472 26.7638 9.045 26.1984 7.09594 25.1353L0 27L1.89844 20.0644C0.725625 18.0394 0.109688 15.7359 0.109688 13.3734C0.118125 5.99906 6.11719 0 13.4916 0C17.0691 0 20.4272 1.39219 22.9584 3.92344C25.4813 6.45469 27 9.81281 27 13.3903C27 20.7647 20.8659 26.7638 13.4916 26.7638Z" fill="#04C2E9"/>
</svg>
